<?xml version="1.0" encoding="utf-8"?>
<!-- Generator: Adobe Illustrator 24.1.0, SVG Export Plug-In . SVG Version: 6.00 Build 0)  -->
<svg version="1.1" id="Layer_1" xmlns="http://www.w3.org/2000/svg" xmlns:xlink="http://www.w3.org/1999/xlink" x="0px" y="0px"
	 viewBox="0 0 2000 2000" style="enable-background:new 0 0 2000 2000;" xml:space="preserve">
<path style="fill-rule:evenodd;clip-rule:evenodd;fill:#2272AD;" d="M898.632,1010.5782H701.0262
	c-12.7466,0-24.5021-6.8751-30.7514-17.9846l-91.72-163.0526c-6.0419-10.7409-6.0419-23.856,0.0002-34.5968l91.7197-163.0468
	c6.2493-11.1093,18.0048-17.9842,30.7511-17.9842h112.2925c12.7467,0,24.5023-6.8752,30.7516-17.9849l83.1985-147.9081
	c6.6149-11.7598-1.8832-26.2903-15.3758-26.2903H609.2628c-25.4933,0-49.0046,13.7504-61.5031,35.9697L367.7876,777.647
	c-12.0832,21.4811-12.0833,47.71-0.0002,69.1912l179.9724,319.9532c12.4984,22.2195,36.0098,35.9701,61.5033,35.9701h387.9422
	c13.4926,0,21.9907-14.5304,15.3759-26.2902l-83.1975-147.908C923.1344,1017.4535,911.3787,1010.5782,898.632,1010.5782z"/>
<path style="fill:#091C38;" d="M1430.3713,561.2685l-76.4771-130.7622c-6.8696-11.7459-23.8884-11.621-30.5853,0.2243
	l-324.8124,577.0898c-6.0781,10.7512-6.0925,23.8979-0.0374,34.6619l84.5583,151.2466
	c6.7107,12.0034,23.9658,12.0536,30.7462,0.0894l317.1992-562.3306C1443.2526,609.6379,1443.0276,582.9082,1430.3713,561.2685z"/>
<path style="fill-rule:evenodd;clip-rule:evenodd;fill:#091C38;" d="M1040.4691,825.9047l96.0004-171.025
	c6.1321-10.9007,6.0349-24.233-0.2551-35.0433l-109.7799-189.2749c-6.8452-11.8021-23.9231-11.6994-30.6259,0.1841l-93.4177,166.037
	c-5.9888,10.6498-6.0414,23.6401-0.1392,34.3381l107.3954,194.6566C1016.3239,837.8792,1033.6926,837.9509,1040.4691,825.9047z"/>
<path style="fill:#091C38;" d="M1715.5382,561.2685l-76.4771-130.7622c-6.8696-11.7459-23.8884-11.621-30.5853,0.2243
	l-325.1532,577.0215c-6.0776,10.7512-6.0919,23.8979-0.0369,34.662l85.2522,151.3633c6.7405,11.9674,23.9679,11.9816,30.7279,0.0251
	l316.8639-562.3149C1728.4194,609.6379,1728.1941,582.9082,1715.5382,561.2685z"/>
<g>
	<g>
		<path style="fill:#091C38;" d="M1116.275,1321.1072h18.9407c4.5135,0,7.8668,4.1788,6.889,8.5852l-52.0657,234.6332
			c-1.0751,4.8445-5.3712,8.2919-10.3335,8.2919h-24.6476c-4.8228,0-9.0358-3.2601-10.2461-7.9286l-44.8152-172.8658
			c-1.3657-5.2676-8.8368-5.2924-10.2372-0.0338l-46.0649,172.9674c-1.2344,4.6351-5.4316,7.8608-10.2283,7.8608h-24.6646
			c-4.9782,0-9.2836-3.469-10.3426-8.3333l-51.077-234.6194c-0.9576-4.3989,2.3931-8.5576,6.8951-8.5576h21.0508
			c5.0536,0,9.4024,3.5725,10.3835,8.53l33.499,169.2826c1.0856,5.486,8.8304,5.7582,10.2985,0.3621l46.3536-170.3688
			c1.2537-4.6082,5.4379-7.8059,10.2135-7.8059h19.1179c4.7885,0,8.9806,3.2147,10.2226,7.8395l45.7625,170.4032
			c1.4491,5.3959,9.1854,5.1562,10.2979-0.319l34.4252-169.4463C1106.9043,1324.6519,1111.2416,1321.1072,1116.275,1321.1072z"/>
	</g>
	<path style="fill:#091C38;" d="M163.8566,1459.5793c0,16.7245,0.938,30.323,2.8254,40.7994
		c1.8836,10.4823,5.2985,18.6675,10.2449,24.5498c4.9463,5.89,11.7112,9.8907,20.3117,12.0117
		c8.5929,2.119,19.6034,3.1794,33.0278,3.1794c6.7504,0,36.1334-0.4031,50.1544-0.6011c4.4962-0.0635,8.5342,2.7207,10.0809,6.9429
		l6.1473,16.7806c1.6758,4.5746-1.6731,9.4308-6.5446,9.4834c-18.3502,0.1979-55.9403,0.5981-59.838,0.5981
		c-20.2562,0-37.151-2.0577-50.6902-6.181c-13.545-4.1174-24.3737-10.6526-32.4995-19.6053
		c-8.1239-8.947-13.8359-20.6658-17.1322-35.1488c-3.3001-14.4829-4.9444-32.0841-4.9444-52.8092v-25.7864
		c0-21.665,1.8204-39.741,5.4746-54.2239c3.6485-14.4829,9.5921-26.1405,17.8385-34.9707
		c8.2426-8.8323,19.0158-15.0687,32.3234-18.723c13.2999-3.6484,29.7277-5.4746,49.2757-5.4746
		c6.3221,0,42.2204,0.3926,60.0806,0.5924c4.9042,0.0549,8.2483,4.9722,6.5094,9.558l-6.3836,16.8344
		c-1.5772,4.1593-5.5754,6.8888-10.0232,6.8311c-14.9103-0.1932-47.4545-0.61-50.8876-0.61
		c-13.6617,0-24.7278,0.9437-33.2058,2.8254c-8.478,1.8875-15.1357,5.712-19.9595,11.4795
		c-4.8276,5.7733-8.0684,13.8992-9.7127,24.3737c-1.6501,10.4823-2.4732,24.3201-2.4732,41.5078V1459.5793z"/>
	<path style="fill:#091C38;" d="M404.7679,1384.3374c15.3041,0,28.3131,1.359,39.0327,4.0638
		c10.7138,2.7086,19.4828,7.4176,26.3166,14.1288c6.828,6.7113,11.8336,15.6641,15.0132,26.8468
		c3.1776,11.1886,4.7683,25.2561,4.7683,42.2123v19.4292c0,16.9562-1.5907,31.0294-4.7683,42.2123
		c-3.1795,11.1885-8.1852,20.1355-15.0132,26.8468c-6.8337,6.7112-15.6028,11.4259-26.3166,14.1288
		c-10.7196,2.7048-23.7286,4.0638-39.0327,4.0638c-15.3118,0-28.3227-1.359-39.0346-4.0638
		c-10.7196-2.7029-19.4905-7.4176-26.3166-14.1288c-6.8337-6.7113-11.8337-15.6583-15.0132-26.8468
		c-3.1795-11.1829-4.7683-25.2561-4.7683-42.2123v-19.4292c0-16.9562,1.5888-31.0237,4.7683-42.2123
		c3.1795-11.1827,8.1794-20.1355,15.0132-26.8468c6.8261-6.7112,15.597-11.4202,26.3166-14.1288
		C376.4452,1385.6964,389.4561,1384.3374,404.7679,1384.3374z M452.1025,1471.5891c0-12.4788-0.6527-22.4308-1.9448-29.8484
		c-1.2959-7.4194-3.6523-13.1257-7.0634-17.1322c-3.4169-4.0026-8.1852-6.6519-14.3068-7.9478
		c-6.1255-1.2921-14.1307-1.9429-24.0195-1.9429c-9.8926,0-17.9017,0.6508-24.0215,1.9429
		c-6.1274,1.2959-10.8957,3.9452-14.3068,7.9478c-3.4169,4.0065-5.7733,9.7128-7.0653,17.1322
		c-1.2979,7.4176-1.941,17.3696-1.941,29.8484v19.4292c0,12.4845,0.6432,22.4308,1.941,29.8484
		c1.2921,7.4194,3.6485,13.1315,7.0653,17.1322c3.4111,4.0083,8.1794,6.6576,14.3068,7.9478
		c6.1198,1.2979,14.1288,1.9429,24.0215,1.9429c9.8888,0,17.894-0.645,24.0195-1.9429c6.1216-1.2902,10.89-3.9395,14.3068-7.9478
		c3.4111-4.0007,5.7675-9.7128,7.0634-17.1322c1.2921-7.4176,1.9448-17.3639,1.9448-29.8484V1471.5891z"/>
	<path style="fill:#091C38;" d="M533.6889,1572.6174c-3.8972,0-7.0566-3.1594-7.0566-7.0566v-117.9912
		c0-10.599,1.6443-19.6053,4.9445-27.0249c3.2963-7.4176,7.9497-13.4225,13.9546-18.0146s13.2463-7.9478,21.7244-10.0668
		c8.4781-2.119,17.894-3.1796,28.2595-3.1796c7.4159,0,25.2212,0.1516,36.5948,0.2559c4.9214,0.0452,8.2861,4.9871,6.5241,9.5825
		l-5.5085,14.3672c-1.5852,4.1344-5.5726,6.8439-10.0001,6.79c-8.5789-0.1044-21.8665-0.2629-24.0766-0.2629
		c-8.2464,0-14.7203,0.7657-19.4293,2.2952c-4.7128,1.5352-8.2464,3.8303-10.597,6.8893
		c-2.3583,3.0627-3.8323,6.8318-4.4161,11.3033c-0.5915,4.4755-0.8824,9.5366-0.8824,15.1893v109.8673
		c0,3.8972-3.1594,7.0566-7.0566,7.0566H533.6889z"/>
	<path style="fill:#091C38;" d="M695.5792,1494.9042c-3.9891,0-7.1795,3.3191-7.057,7.3063
		c0.2029,6.6064,0.6966,12.1786,1.4824,16.7133c1.0604,6.1274,3.1795,10.9512,6.359,14.4829
		c3.1776,3.5337,7.5956,5.9513,13.2463,7.2415c5.6508,1.2979,13.1851,1.943,22.6068,1.943c5.3473,0,44.1348-0.4332,60.7066-0.6211
		c4.4864-0.0509,8.506,2.7323,10.0484,6.9456l5.2402,14.3146c1.676,4.5781-1.6833,9.436-6.5584,9.4821
		c-20.3997,0.1925-65.2659,0.6116-69.4368,0.6116c-16.7225,0-30.323-1.943-40.7995-5.8287
		c-10.4822-3.8859-18.721-9.416-24.7278-16.6021c-6.003-7.1802-10.0649-15.8956-12.1859-26.1405
		c-2.1191-10.2429-3.1796-21.6038-3.1796-34.0883v-19.7815c0-13.4224,1.116-25.4877,3.3557-36.2073
		c2.2358-10.7139,6.359-19.7815,12.3639-27.1991c6.0049-7.4194,14.3623-13.1257,25.0819-17.1321
		c10.7119-4.0027,24.6666-6.0068,41.8581-6.0068c15.775,0,28.6691,1.828,38.6805,5.4766
		c10.0075,3.6542,17.894,8.5986,23.6673,14.8351c5.7675,6.2423,9.7147,13.4244,11.8337,21.5483s3.1795,16.5483,3.1795,25.2581
		v5.2985c0,8.478-0.4747,15.1893-1.4146,20.1337c-0.9418,4.9464-2.4713,8.7767-4.5903,11.4814
		c-2.121,2.7086-4.7702,4.4755-7.9478,5.2986c-3.1795,0.8269-7.0098,1.2366-11.4814,1.2366H695.5792z M732.2168,1413.6573
		c-9.4218,0-16.9561,0.7064-22.6068,2.119c-5.6508,1.4127-10.0688,4.062-13.2463,7.9479c-3.1795,3.8859-5.2986,9.2456-6.359,16.0736
		c-0.8123,5.2324-1.3123,11.6383-1.5019,19.2158c-0.0996,3.9796,3.0744,7.2769,7.0552,7.2769h73.7594
		c3.8972,0,7.0565-3.1593,7.0565-7.0565v-4.9532c0-7.7717-0.6508-14.3068-1.9448-19.6053c-1.2959-5.2986-3.6523-9.4773-7.0634-12.54
		c-3.4169-3.057-7.9478-5.2373-13.6005-6.535C748.1124,1414.3082,740.9265,1413.6573,732.2168,1413.6573z"/>
	<path style="fill:#091C38;" d="M1200.9819,1494.9042c-3.989,0-7.1794,3.3191-7.057,7.3063
		c0.203,6.6064,0.6967,12.1786,1.4824,16.7133c1.0604,6.1274,3.1796,10.9512,6.359,14.4829
		c3.1776,3.5337,7.5956,5.9513,13.2463,7.2415c5.6508,1.2979,13.1851,1.943,22.6068,1.943c5.3473,0,44.1348-0.4332,60.7067-0.6211
		c4.4863-0.0509,8.506,2.7323,10.0483,6.9456l5.2402,14.3146c1.676,4.5781-1.6833,9.436-6.5583,9.4821
		c-20.3998,0.1925-65.266,0.6116-69.4369,0.6116c-16.7225,0-30.323-1.943-40.7994-5.8287
		c-10.4823-3.8859-18.7211-9.416-24.7278-16.6021c-6.0031-7.1802-10.0649-15.8956-12.1859-26.1405
		c-2.119-10.2429-3.1794-21.6038-3.1794-34.0883v-19.7815c0-13.4224,1.116-25.4877,3.3556-36.2073
		c2.2357-10.7139,6.359-19.7815,12.3639-27.1991c6.0049-7.4194,14.3623-13.1257,25.0819-17.1321
		c10.7119-4.0027,24.6665-6.0068,41.858-6.0068c15.775,0,28.6692,1.828,38.6805,5.4766
		c10.0074,3.6542,17.894,8.5986,23.6672,14.8351c5.7676,6.2423,9.7147,13.4244,11.8337,21.5483s3.1794,16.5483,3.1794,25.2581
		v5.2985c0,8.478-0.4747,15.1893-1.4146,20.1337c-0.9418,4.9464-2.4713,8.7767-4.5903,11.4814
		c-2.121,2.7086-4.7701,4.4755-7.9478,5.2986c-3.1796,0.8269-7.0099,1.2366-11.4814,1.2366H1200.9819z M1237.6195,1413.6573
		c-9.4218,0-16.9561,0.7064-22.6068,2.119c-5.6508,1.4127-10.0687,4.062-13.2463,7.9479c-3.1794,3.8859-5.2986,9.2456-6.359,16.0736
		c-0.8123,5.2324-1.3123,11.6383-1.5018,19.2158c-0.0996,3.9796,3.0743,7.2769,7.0552,7.2769h73.7594
		c3.8972,0,7.0565-3.1593,7.0565-7.0565v-4.9532c0-7.7717-0.6509-14.3068-1.9448-19.6053c-1.2959-5.2986-3.6523-9.4773-7.0635-12.54
		c-3.4169-3.057-7.9478-5.2373-13.6005-6.535C1253.5151,1414.3082,1246.3292,1413.6573,1237.6195,1413.6573z"/>
	<path style="fill:#091C38;" d="M1759.2346,1494.9042c-3.989,0-7.1796,3.3191-7.057,7.3063
		c0.203,6.6064,0.6965,12.1786,1.4824,16.7133c1.0604,6.1274,3.1794,10.9512,6.359,14.4829
		c3.1776,3.5337,7.5956,5.9513,13.2463,7.2415c5.6508,1.2979,13.1851,1.943,22.6068,1.943c5.3473,0,44.1348-0.4332,60.7067-0.6211
		c4.4863-0.0509,8.506,2.7323,10.0483,6.9456l5.2402,14.3146c1.6759,4.5781-1.6833,9.436-6.5583,9.4821
		c-20.3998,0.1925-65.266,0.6116-69.4369,0.6116c-16.7225,0-30.323-1.943-40.7996-5.8287
		c-10.4822-3.8859-18.7209-9.416-24.7278-16.6021c-6.0029-7.1802-10.0648-15.8956-12.1858-26.1405
		c-2.119-10.2429-3.1796-21.6038-3.1796-34.0883v-19.7815c0-13.4224,1.116-25.4877,3.3556-36.2073
		c2.2358-10.7139,6.359-19.7815,12.3639-27.1991c6.0049-7.4194,14.3624-13.1257,25.082-17.1321
		c10.7119-4.0027,24.6665-6.0068,41.858-6.0068c15.775,0,28.6692,1.828,38.6804,5.4766
		c10.0076,3.6542,17.8942,8.5986,23.6674,14.8351c5.7676,6.2423,9.7146,13.4244,11.8336,21.5483
		c2.1191,8.1239,3.1796,16.5483,3.1796,25.2581v5.2985c0,8.478-0.4747,15.1893-1.4146,20.1337
		c-0.9419,4.9464-2.4713,8.7767-4.5903,11.4814c-2.121,2.7086-4.7703,4.4755-7.9478,5.2986
		c-3.1796,0.8269-7.0099,1.2366-11.4814,1.2366H1759.2346z M1795.8722,1413.6573c-9.4218,0-16.9561,0.7064-22.6068,2.119
		c-5.6508,1.4127-10.0687,4.062-13.2463,7.9479c-3.1796,3.8859-5.2986,9.2456-6.359,16.0736
		c-0.8123,5.2324-1.3123,11.6383-1.502,19.2158c-0.0995,3.9796,3.0745,7.2769,7.0553,7.2769h73.7593
		c3.8972,0,7.0566-3.1593,7.0566-7.0565v-4.9532c0-7.7717-0.6509-14.3068-1.9448-19.6053c-1.296-5.2986-3.6523-9.4773-7.0635-12.54
		c-3.4169-3.057-7.9479-5.2373-13.6005-6.535C1811.7678,1414.3082,1804.5819,1413.6573,1795.8722,1413.6573z"/>
	<path style="fill:#091C38;" d="M1503.9446,1542.2388c0,11.3035-2.5938,19.1958-7.7698,23.6674
		c-5.1837,4.4755-14.6055,6.7113-28.2595,6.7113h-52.9873c-24.7278,0-42.4496-4.531-53.1635-13.6006
		c-10.7196-9.0618-16.0718-22.6624-16.0718-40.7994v-7.7717c0-19.7815,5.8269-33.9103,17.4845-42.3883
		c11.6575-8.478,29.8502-12.718,54.576-12.718c14.1307,0,25.1968,1.1217,33.2058,3.3575c4.0017,1.1198,7.4746,2.2827,10.4185,3.4894
		c3.4594,1.418,7.244-1.1986,7.244-4.9374v-1.9095c0-5.8824-0.4154-11.0048-1.2366-15.3654
		c-0.8289-4.3549-2.8273-8.0034-6.0049-10.9513c-3.1794-2.9402-7.7717-5.176-13.7766-6.7112
		c-6.0049-1.5294-14.1919-2.2952-24.5516-2.2952c-7.6459,0-42.9761,0.4221-58.6196,0.6138
		c-4.4899,0.0549-8.5217-2.7289-10.0653-6.9454l-5.2407-14.3158c-1.6752-4.5758,1.6696-9.432,6.5422-9.4818
		c19.1575-0.196,59.8724-0.6034,67.3834-0.6034c28.4911,0,49.1014,5.0057,61.8175,15.0132
		c12.718,10.0114,19.0752,24.7871,19.0752,44.3312V1542.2388z M1380.3094,1517.8651c0,8.2445,2.4731,14.4275,7.4194,18.5449
		c4.9445,4.1233,14.0082,6.181,27.1991,6.181h46.6371c3.8972,0,7.0565-3.1593,7.0565-7.0565v-25.441
		c0-4.4717-0.4747-8.3575-1.4127-11.6576c-0.9456-3.2943-2.8273-5.9436-5.6526-7.9478c-2.8254-1.9985-6.9486-3.4724-12.3639-4.4161
		c-5.4192-0.938-12.6013-1.4127-21.5483-1.4127h-8.1239c-7.7717,0-14.1901,0.4135-19.2512,1.2366
		c-5.0669,0.827-9.0696,2.2416-12.0117,4.2382c-2.9459,2.0042-5.0056,4.6534-6.1809,7.9497
		c-1.1812,3.3-1.7668,7.4175-1.7668,12.3619V1517.8651z"/>
	<path style="fill:#091C38;" d="M1562.5879,1397.0792l42.4017,121.1904c1.6459,4.7041,8.2881,4.7334,9.9753,0.0439l43.6519-121.3223
		c1.5114-4.2006,5.4956-7.0013,9.9597-7.0013h20.7677c4.958,0,8.37,4.9785,6.5812,9.6025l-64.3175,166.259
		c-1.5775,4.0776-5.4998,6.7659-9.8719,6.7659h-24.6998c-4.3722,0-8.2944-2.6882-9.8718-6.7659l-64.3176-166.259
		c-1.7888-4.624,1.6233-9.6025,6.5813-9.6025h23.1689C1557.0953,1389.99,1561.1023,1392.8333,1562.5879,1397.0792z"/>
</g>
</svg>
