<?xml version="1.0" encoding="UTF-8"?>
<svg width="95px" height="65px" viewBox="0 0 95 65" version="1.1" xmlns="http://www.w3.org/2000/svg" xmlns:xlink="http://www.w3.org/1999/xlink">
    <title>iocn</title>
    <defs>
        <polygon id="path-1" points="0.0005 0 95 0 95 64.9999 0.0005 64.9999"></polygon>
        <polygon id="path-3" points="0 65 95 65 95 0 0 0"></polygon>
    </defs>
    <g id="Designs" stroke="none" stroke-width="1" fill="none" fill-rule="evenodd">
        <g id="Home-Page-Color-Op1" transform="translate(-1027.000000, -1472.000000)">
            <g id="Use-Cases" transform="translate(250.000000, 1072.000000)">
                <g id="2" transform="translate(0.000000, 322.000000)">
                    <g id="Button-Small-Secondary" transform="translate(80.000000, 78.000000)">
                        <g id="iocn" transform="translate(697.000000, 0.000000)">
                            <g id="Group-3">
                                <mask id="mask-2" fill="white">
                                    <use xlink:href="#path-1"></use>
                                </mask>
                                <g id="Clip-2"></g>
                                <path d="M88.9425,-0.0001 L5.7385,-0.0001 C2.5495,-0.0001 0.0005,2.5869 0.0005,5.8209 L0.0005,59.1789 C0.0005,62.4129 2.5495,64.9999 5.7385,64.9999 L88.9425,64.9999 C92.4495,64.9999 95.0005,62.4129 95.0005,59.1789 L95.0005,5.8209 C95.0005,2.5869 92.4495,-0.0001 88.9425,-0.0001 M88.9425,2.4999 C91.0045,2.4999 92.5005,3.8959 92.5005,5.8209 L92.5005,59.1789 C92.5005,61.1039 91.0045,62.4999 88.9425,62.4999 L5.7385,62.4999 C3.9215,62.4999 2.5005,61.0419 2.5005,59.1789 L2.5005,5.8209 C2.5005,3.9589 3.9215,2.4999 5.7385,2.4999 L88.9425,2.4999" id="Fill-1" fill="#FFFFFF" mask="url(#mask-2)"></path>
                            </g>
                            <mask id="mask-4" fill="white">
                                <use xlink:href="#path-3"></use>
                            </mask>
                            <g id="Clip-5"></g>
                            <polygon id="Fill-4" fill="#FFFFFF" mask="url(#mask-4)" points="42.328 27.519 85.165 27.519 85.165 25.019 42.328 25.019"></polygon>
                            <polygon id="Fill-6" fill="#FFFFFF" mask="url(#mask-4)" points="42.328 37.54 85.165 37.54 85.165 35.04 42.328 35.04"></polygon>
                            <polygon id="Fill-7" fill="#FFFFFF" mask="url(#mask-4)" points="42.328 47.561 85.165 47.561 85.165 45.061 42.328 45.061"></polygon>
                            <path d="M20.2794,29.9321 C15.4204,29.9321 10.6024,31.8741 6.8914,35.7421 C6.5864,36.0591 6.3674,36.4541 6.1164,36.8261 C5.7144,37.4261 5.4914,38.2161 5.49239665,39.0381 L5.49239665,54.0851 C5.49239665,55.8691 6.5264,57.3141 7.8014,57.3141 L33.2094,57.3141 C34.4854,57.3141 35.5184838,55.8691 35.5184838,54.0851 L35.5184838,39.0381 C35.5234,38.2191 35.3044,37.4281 34.9074,36.8261 C30.8894,32.2241 25.5594,29.9321 20.2794,29.9321 M20.2794,32.4321 C25.0294,32.4321 29.4944,34.5151 32.8764,38.3031 C32.9534,38.4661 33.0204,38.7191 33.0184437,39.0381 L33.0184437,54.0851 C33.0184437,54.4321 32.9374,54.6751 32.8684,54.8141 L8.1424,54.8141 C8.0734,54.6751 7.9924,54.4321 7.9924,54.0851 L7.9924,39.0351 C7.9924,38.6541 8.0954,38.3621 8.1864,38.2271 C8.2614,38.1151 8.3354,38.0011 8.4084,37.8881 C8.5054,37.7391 8.6364,37.5341 8.6954,37.4731 C11.8134,34.2221 15.9274,32.4321 20.2794,32.4321" id="Fill-8" fill="#FFFFFF" mask="url(#mask-4)"></path>
                            <path d="M19.6564,5.9072 C13.7064,5.9072 8.8844,10.7302 8.8844,16.6792 C8.8844,22.6292 13.7064,27.4512 19.6564,27.4512 C25.6054,27.4512 30.4274,22.6292 30.4274,16.6792 C30.4274,10.7302 25.6054,5.9072 19.6564,5.9072 M19.6564,8.4072 C24.2174,8.4072 27.9274,12.1182 27.9274,16.6792 C27.9274,21.2402 24.2174,24.9512 19.6564,24.9512 C15.0944,24.9512 11.3844,21.2402 11.3844,16.6792 C11.3844,12.1182 15.0944,8.4072 19.6564,8.4072" id="Fill-9" fill="#FFFFFF" mask="url(#mask-4)"></path>
                        </g>
                    </g>
                </g>
            </g>
        </g>
    </g>
</svg>