<?xml version="1.0" encoding="UTF-8"?>
<svg width="24px" height="24px" viewBox="0 0 24 24" version="1.1" xmlns="http://www.w3.org/2000/svg" xmlns:xlink="http://www.w3.org/1999/xlink">
    <title>icon</title>
    <g id="Designs" stroke="none" stroke-width="1" fill="none" fill-rule="evenodd">
        <g id="Homepage-Mobile-Nav" transform="translate(-328.000000, -28.000000)" fill="#231F1F" fill-rule="nonzero">
            <g id="icon" transform="translate(328.000000, 28.000000)">
                <path d="M26,13 L-2,13 C-2.55228475,13 -3,12.5522847 -3,12 C-3,11.4477153 -2.55228475,11 -2,11 L26,11 C26.5522847,11 27,11.4477153 27,12 C27,12.5522847 26.5522847,13 26,13 Z" id="Shape" transform="translate(12.000000, 12.000000) scale(-1, 1) rotate(45.000000) translate(-12.000000, -12.000000) "></path>
                <path d="M26,13 L-2,13 C-2.55228475,13 -3,12.5522847 -3,12 C-3,11.4477153 -2.55228475,11 -2,11 L26,11 C26.5522847,11 27,11.4477153 27,12 C27,12.5522847 26.5522847,13 26,13 Z" id="Shape" transform="translate(12.000000, 12.000000) rotate(45.000000) translate(-12.000000, -12.000000) "></path>
            </g>
        </g>
    </g>
</svg>