<?xml version="1.0" encoding="UTF-8"?>
<svg width="67px" height="74px" viewBox="0 0 67 74" version="1.1" xmlns="http://www.w3.org/2000/svg" xmlns:xlink="http://www.w3.org/1999/xlink">
    <title>icon</title>
    <g id="Designs" stroke="none" stroke-width="1" fill="none" fill-rule="evenodd">
        <g id="Home-Page-Color-Op2" transform="translate(-687.000000, -544.000000)" fill="#0095D3">
            <g id="Callout-2" transform="translate(570.000000, 512.000000)">
                <g id="icon" transform="translate(117.000000, 32.000000)">
                    <path d="M32.8401057,26 C26.0029546,26 19.1522765,28.6684375 13.7940782,34.0500901 C13.422837,34.4234892 13.0606138,34.8075135 12.7089116,35.202163 C12.1475407,35.8381558 11.835668,36.6783038 11.8371656,37.5510862 L11.8371656,46.5703444 C11.8371656,48.4646618 13.2838094,50 15.0678715,50 L50.606328,50 C52.3903901,50 53.8370952,48.4646618 53.8370952,46.5703444 L53.8370952,37.5510862 C53.8422889,36.6805806 53.5364283,35.8411915 52.9803179,35.202163 C47.5289336,29.0850963 40.1920347,26 32.8401057,26 M32.8401057,27.8973532 C39.9996506,27.8973532 46.6564416,30.9422256 51.5682486,36.4528982 C51.8222557,36.7450906 51.9605318,37.1306328 51.9583044,37.5510862 L51.9583044,46.5703444 C51.9583044,47.415046 51.3518164,48.1026468 50.606328,48.1026468 L15.0678715,48.1026468 C14.322383,48.1026468 13.7159192,47.415046 13.7159192,46.5703444 L13.7159192,37.5480505 C13.7151707,37.1397401 13.8557013,36.7541979 14.1051994,36.4711128 C14.4328536,36.1045442 14.7732833,35.7425292 15.118222,35.395693 C19.9330854,30.5604781 26.2269017,27.8973532 32.8401057,27.8973532" id="Fill-1"></path>
                    <path d="M32.8898054,0.640025806 C26.4438699,0.640025806 21.2188377,5.86505806 21.2188377,12.3109935 C21.2188377,18.7561548 26.4438699,23.9819613 32.8898054,23.9819613 C39.3357409,23.9819613 44.5607732,18.7561548 44.5607732,12.3109935 C44.5607732,5.86505806 39.3357409,0.640025806 32.8898054,0.640025806 M32.8898054,2.57550968 C38.2580635,2.57550968 42.6252893,6.94273548 42.6252893,12.3109935 C42.6252893,17.6792516 38.2580635,22.0464774 32.8898054,22.0464774 C27.5215474,22.0464774 23.1543216,17.6792516 23.1543216,12.3109935 C23.1543216,6.94273548 27.5215474,2.57550968 32.8898054,2.57550968" id="Fill-3"></path>
                    <path d="M60.4185835,72 C58.3027463,72 56.5813742,70.3052889 56.5813742,68.2222222 C56.5813742,66.1391556 58.3027463,64.4444444 60.4185835,64.4444444 C62.5344207,64.4444444 64.2557928,66.1391556 64.2557928,68.2222222 C64.2557928,70.3052889 62.5344207,72 60.4185835,72 M37.1535835,68.2222222 C37.1535835,70.3052889 35.4322114,72 33.3163742,72 C31.200537,72 29.4791649,70.3052889 29.4791649,68.2222222 C29.4791649,66.1391556 31.200537,64.4444444 33.3163742,64.4444444 C35.4322114,64.4444444 37.1535835,66.1391556 37.1535835,68.2222222 M10.4304905,68.2222222 C10.4304905,70.3052889 8.7091184,72 6.59328119,72 C4.47667654,72 2.75607189,70.3052889 2.75607189,68.2222222 C2.75607189,66.1391556 4.47667654,64.4444444 6.59328119,64.4444444 C8.7091184,64.4444444 10.4304905,66.1391556 10.4304905,68.2222222 M61.2926998,62.6280889 L61.2926998,55.0166222 L5.63628119,55.0166222 L5.63628119,62.6401778 C2.91416491,63.0897333 0.837467239,65.4138222 0.837467239,68.2222222 C0.837467239,71.3517333 3.41453701,73.8888889 6.59328119,73.8888889 C9.77202538,73.8888889 12.3490951,71.3517333 12.3490951,68.2222222 C12.3490951,65.4160889 10.2746998,63.092 7.55488584,62.6409333 L7.55488584,56.9055111 L32.3570719,56.9055111 L32.3570719,62.6401778 C29.6357231,63.0904889 27.5605603,65.4153333 27.5605603,68.2222222 C27.5605603,71.3517333 30.13763,73.8888889 33.3163742,73.8888889 C36.4951184,73.8888889 39.0721882,71.3517333 39.0721882,68.2222222 C39.0721882,65.4153333 36.9970254,63.0904889 34.2756765,62.6401778 L34.2756765,56.9055111 L59.3740951,56.9055111 L59.3740951,62.6530222 C56.6941882,63.1380889 54.6627696,65.4440444 54.6627696,68.2222222 C54.6627696,71.3517333 57.2398393,73.8888889 60.4185835,73.8888889 C63.5973277,73.8888889 66.1743975,71.3517333 66.1743975,68.2222222 C66.1743975,65.3858667 64.0554905,63.0436444 61.2926998,62.6280889" id="Fill-6"></path>
                </g>
            </g>
        </g>
    </g>
</svg>