<?xml version="1.0" encoding="UTF-8"?>
<svg width="22px" height="22px" viewBox="0 0 22 22" version="1.1" xmlns="http://www.w3.org/2000/svg" xmlns:xlink="http://www.w3.org/1999/xlink">
    <title>Clip 2</title>
    <defs>
        <path d="M0,29.2790236 C0,34.2610621 3.1515,38.4896074 7.522625,39.9805524 L7.522625,39.9805524 C8.07308333,40.0845931 8.273375,39.7362629 8.273375,39.4369739 L8.273375,39.4369739 C8.273375,39.1693097 8.26420833,38.4602744 8.25870833,37.5188662 L8.25870833,37.5188662 C5.198875,38.20086 4.55308333,36.0068381 4.55308333,36.0068381 L4.55308333,36.0068381 C4.05304167,34.7038081 3.33208333,34.3568529 3.33208333,34.3568529 L3.33208333,34.3568529 C2.333375,33.6569842 3.40725,33.6716508 3.40725,33.6716508 L3.40725,33.6716508 C4.51183333,33.7509417 5.09254167,34.8339736 5.09254167,34.8339736 L5.09254167,34.8339736 C6.07429167,36.5572915 7.667,36.059546 8.294,35.7707986 L8.294,35.7707986 C8.39345833,35.0411384 8.67808333,34.5452262 8.99204167,34.2624371 L8.99204167,34.2624371 C6.54958333,33.9778147 3.98154167,33.01074 3.98154167,28.6886956 L3.98154167,28.6886956 C3.98154167,27.4576233 4.41054167,26.4502157 5.11408333,25.6618894 L5.11408333,25.6618894 C5.00133333,25.3763503 4.62366667,24.2296107 5.22179167,22.6777079 L5.22179167,22.6777079 C5.22179167,22.6777079 6.14533333,22.3738357 8.24679167,23.8336142 L8.24679167,23.8336142 C9.12404167,23.5833665 10.065,23.4582426 11.0004583,23.4541176 L11.0004583,23.4541176 C11.935,23.4582426 12.8755,23.5833665 13.7550417,23.8336142 L13.7550417,23.8336142 C15.8546667,22.3738357 16.776375,22.6777079 16.776375,22.6777079 L16.776375,22.6777079 C17.3763333,24.2296107 16.9986667,25.3763503 16.886375,25.6618894 L16.886375,25.6618894 C17.5912917,26.4502157 18.016625,27.4576233 18.016625,28.6886956 L18.016625,28.6886956 C18.016625,33.0212816 15.4449167,33.9750647 12.9946667,34.2546455 L12.9946667,34.2546455 C13.3892917,34.6029757 13.740375,35.2913862 13.740375,36.3427934 L13.740375,36.3427934 C13.740375,37.8502382 13.7275417,39.0671022 13.7275417,39.4369739 L13.7275417,39.4369739 C13.7275417,39.7390129 13.9255417,40.0896347 14.48425,39.9791774 L14.48425,39.9791774 C18.85125,38.4850241 22,34.2610621 22,29.2790236 L22,29.2790236 C22,23.0498713 17.0742917,18 10.9990833,18 L10.9990833,18 C4.92525,18 0,23.0498713 0,29.2790236 L0,29.2790236 Z" id="path-1"></path>
    </defs>
    <g id="Designs" stroke="none" stroke-width="1" fill="none" fill-rule="evenodd">
        <g id="Home-Page-Carvel-Op1" transform="translate(-865.000000, -33.000000)">
            <g id="github" transform="translate(865.000000, 15.000000)">
                <mask id="mask-2" fill="white">
                    <use xlink:href="#path-1"></use>
                </mask>
                <use id="Clip-2" fill="#E8E8E8" xlink:href="#path-1"></use>
            </g>
        </g>
    </g>
</svg>