<?xml version="1.0" encoding="UTF-8"?>
<svg width="30px" height="22px" viewBox="0 0 30 22" version="1.1" xmlns="http://www.w3.org/2000/svg" xmlns:xlink="http://www.w3.org/1999/xlink">
    <title>icon</title>
    <g id="Designs" stroke="none" stroke-width="1" fill="none" fill-rule="evenodd">
        <g id="Homepage-Mobile" transform="translate(-325.000000, -29.000000)" fill="#231F1F" fill-rule="nonzero">
            <g id="icon" transform="translate(325.000000, 29.000000)">
                <path d="M29,22 L1,22 C0.44771525,22 0,21.5522847 0,21 C0,20.4477153 0.44771525,20 1,20 L29,20 C29.5522847,20 30,20.4477153 30,21 C30,21.5522847 29.5522847,22 29,22 Z" id="Shape"></path>
                <path d="M29,12 L1,12 C0.44771525,12 0,11.5522847 0,11 C0,10.4477153 0.44771525,10 1,10 L29,10 C29.5522847,10 30,10.4477153 30,11 C30,11.5522847 29.5522847,12 29,12 Z" id="Shape"></path>
                <path d="M29,2 L1,2 C0.44771525,2 0,1.55228475 0,1 C0,0.44771525 0.44771525,0 1,0 L29,0 C29.5522847,0 30,0.44771525 30,1 C30,1.55228475 29.5522847,2 29,2 Z" id="Shape"></path>
            </g>
        </g>
    </g>
</svg>