<svg xmlns="http://www.w3.org/2000/svg" width="480" viewBox="0 0 480 526.3">
  <path d="M222.611 22.453 39.75 128.032A35.1 35.1 0 0 0 22.2 158.43v211.16a35.1 35.1 0 0 0 17.55 30.399l182.861 105.579a35.107 35.107 0 0 0 35.101 0l182.874-105.579a35.101 35.101 0 0 0 17.55-30.399V158.429c0-12.54-6.69-24.127-17.55-30.398L257.712 22.453a35.1 35.1 0 0 0-35.101 0" fill="#1b2b39"/>
  <path d="m239.02 80.078-14.404 44.28a1.01 1.01 0 0 0 .958 1.318h28.807a1.01 1.01 0 0 0 .958-1.318l-14.404-44.28a1.01 1.01 0 0 0-1.916 0m79.661 41.656-17.306 15.573a.502.502 0 0 0 .085.81l12.473 7.201a.503.503 0 0 0 .745-.332l4.833-22.774a.504.504 0 0 0-.83-.479m65.251 64.399-22.774 4.832a.504.504 0 0 0-.332.745l7.202 12.474c.171.296.581.34.81.084l15.572-17.306a.503.503 0 0 0-.479-.829M97.265 342.319l22.774-4.832a.504.504 0 0 0 .332-.745l-7.202-12.474a.503.503 0 0 0-.81-.084L96.786 341.49a.503.503 0 0 0 .479.829m327.109-79.353-44.28-14.404a1.01 1.01 0 0 0-1.318.958v28.807a1.01 1.01 0 0 0 1.318.958l44.28-14.404a1.01 1.01 0 0 0 0-1.916M240.94 447.95l14.404-44.28a1.01 1.01 0 0 0-.958-1.318h-28.807a1.01 1.01 0 0 0-.958 1.318l14.404 44.28a1.01 1.01 0 0 0 1.916 0M55.943 264.885l44.28 14.404a1.01 1.01 0 0 0 1.32-.958v-28.807a1.01 1.01 0 0 0-1.32-.958l-44.28 14.404a1.01 1.01 0 0 0 0 1.916m100.138 139.286 17.306-15.573a.5.5 0 0 0-.085-.809l-12.473-7.202a.504.504 0 0 0-.745.332l-4.833 22.774c-.1.477.468.805.83.479" fill="#fff"/>
  <path d="m262.414 239.425 89.755 135.939c1.632 2.473-1.314 5.396-3.775 3.747l-135.113-90.585-90.495-135.18c-1.648-2.462 1.28-5.405 3.75-3.771z" fill="#1698cb"/>
  <path d="M239.58 388.015c-68.272-.216-123.889-56.181-123.693-124.453a123.29 123.29 0 0 1 16.219-60.917c2.071-3.635 1.513-8.197-1.445-11.156l-.032-.031c-4.28-4.28-11.484-3.359-14.49 1.894-11.942 20.876-18.407 44.544-18.637 69.208-.348 37.347 14.028 73.495 39.99 100.347 27.099 28.028 63.604 43.5 102.486 43.5 24.614 0 48.272-6.204 69.196-17.865 5.373-2.994 6.425-10.275 2.075-14.623l-.001-.001c-2.942-2.942-7.466-3.52-11.1-1.497-17.941 9.991-38.602 15.664-60.569 15.593m101.149-224.837c-26.912-26.911-62.692-41.732-100.752-41.732-26.537 0-51.963 7.213-74.049 20.701-5.095 3.11-5.912 10.184-1.692 14.403a9.222 9.222 0 0 0 11.32 1.364 123.35 123.35 0 0 1 66.455-18.061c66.983 1.08 121.356 55.777 122.052 122.765.256 24.513-6.638 47.431-18.718 66.795a9.225 9.225 0 0 0 1.314 11.401c4.199 4.199 11.223 3.408 14.368-1.629 13.963-22.365 21.433-48.236 21.433-75.256 0-38.06-14.822-73.84-41.732-100.752" fill="#fff"/>
</svg>
