<svg xmlns="http://www.w3.org/2000/svg" width="163" height="43" stroke="null" fill="none" fill-rule="evenodd"><g fill-rule="nonzero"><path d="M16.412 38.748L3.354 31.209a2.506 2.506 0 0 1-1.253-2.171V13.961a2.506 2.506 0 0 1 1.253-2.171l13.058-7.539a2.507 2.507 0 0 1 2.506 0l13.058 7.539a2.506 2.506 0 0 1 1.253 2.171v15.078a2.506 2.506 0 0 1-1.253 2.171l-13.058 7.539a2.506 2.506 0 0 1-2.506 0" fill="#1b2b39"/><path d="M16.605 31.627l.978 3.007c.022.066.115.066.137 0l.978-3.007c1.208-.123 2.37-.457 3.443-.985l1.131 1.017a.036.036 0 0 0 .059-.034l-.312-1.471a10.255 10.255 0 0 0 1.827-1.454 10.24 10.24 0 0 0 1.539-1.967l1.545.328a.036.036 0 0 0 .034-.059l-1.083-1.203a10.09 10.09 0 0 0 .89-3.233l3.047-.991c.066-.022.066-.115 0-.137l-3.047-.991a10.07 10.07 0 0 0-1.476-4.314.66.66 0 0 0-1.026-.116.659.659 0 0 0-.094.814c.863 1.383 1.355 3.019 1.337 4.77-.05 4.783-3.932 8.689-8.715 8.766a8.81 8.81 0 0 1-4.745-1.29.658.658 0 0 0-.808.097.66.66 0 0 0 .121 1.028 10.07 10.07 0 0 0 4.241 1.425h0z" fill="#fff"/><path d="M19.254 23.255l6.409-9.707c.117-.177-.094-.385-.27-.268l-9.648 6.468-6.462 9.653c-.118.176.091.386.268.269l9.703-6.416h0 0z" fill="#1698cb"/><path d="M8.956 16.226l-1.494-.317a.036.036 0 0 0-.034.059l1.042 1.158a10.199 10.199 0 0 0-.937 3.328l-3.022.983c-.066.022-.066.115 0 .137l3.02.983c.144 1.416.58 2.769 1.278 3.988.215.375.729.441 1.035.135l.002-.002a.66.66 0 0 0 .103-.797c-.733-1.285-1.154-2.769-1.158-4.35-.014-4.875 3.957-8.871 8.832-8.887 1.569-.005 3.044.4 4.325 1.113.259.144.583.103.793-.107h0a.66.66 0 0 0-.148-1.044c-1.194-.665-2.512-1.082-3.89-1.222l-.982-3.019c-.022-.066-.115-.066-.137 0l-.982 3.019c-1.333.136-2.61.53-3.773 1.157l-1.167-1.051a.036.036 0 0 0-.059.034l.331 1.561a10.302 10.302 0 0 0-1.6 1.35 10.129 10.129 0 0 0-1.378 1.788h0z" fill="#fff"/></g><path d="M58.013 30.995l-6.972-12.424 5.561-6.565h-4.584l-5.317 6.483-1.492 1.926.054-3.011v-5.398h-3.798v18.989h3.798v-5.588l3.038-3.581 5.154 9.169h4.557 0zm14.283 0V16.754h-3.744v7.785c0 2.469-.895 3.228-2.441 3.228s-2.414-.76-2.414-3.31v-7.704h-3.744v8.03c0 4.015 1.628 6.511 5.263 6.511 1.492 0 2.686-.57 3.337-1.248v.949h3.744 0zm15.64-6.945c0 4.259-2.007 7.243-5.534 7.243-1.248 0-2.333-.488-3.011-1.112v.814h-3.744V13.092l3.744-1.872v6.429c.705-.624 1.655-1.194 3.011-1.194 3.038 0 5.534 2.279 5.534 7.596h0zm-3.798.081c0-2.93-.977-4.15-2.441-4.15-1.166 0-1.763.488-2.306 1.194v5.371c.57.787 1.438 1.221 2.523 1.221 1.438 0 2.224-1.248 2.224-3.635h0zm18.081-.244l-.054 1.194h-8.518c.136 1.953 1.573 2.686 2.93 2.686 1.031 0 1.899-.38 2.441-1.004l2.658 2.224c-1.139 1.465-3.201 2.306-5.1 2.306-4.096 0-6.7-2.903-6.7-7.406 0-4.367 2.74-7.433 6.348-7.433 3.798 0 5.995 3.364 5.995 7.433h0zm-3.635-1.628c-.109-1.275-.868-2.55-2.55-2.55-1.356 0-2.197 1.112-2.333 2.55h4.883zm17.918 8.735h-3.744v-.949c-.678.705-1.872 1.248-3.201 1.248-2.658 0-5.317-1.628-5.317-5.073 0-3.147 2.55-4.72 5.778-4.72 1.302 0 2.143.271 2.74.57v-.705c0-1.004-.678-1.818-2.035-1.818-1.709 0-2.604.244-3.906.949l-1.438-2.604c1.655-.949 3.038-1.438 5.344-1.438 3.445 0 5.778 1.79 5.778 4.991v9.549h0zm-3.744-4.178v-1.79c-.651-.407-1.275-.597-2.604-.597-1.411 0-2.17.651-2.17 1.79 0 1.004.57 1.899 2.17 1.899 1.221 0 2.197-.624 2.604-1.302zm19.248-2.767c0 4.259-2.007 7.243-5.534 7.243-1.248 0-2.333-.488-3.011-1.112v4.178l-3.744 1.872V16.754h3.744v.895c.705-.624 1.655-1.194 3.011-1.194 3.038 0 5.534 2.279 5.534 7.596zm-3.798.081c0-2.93-.977-4.15-2.441-4.15-1.166 0-1.763.488-2.306 1.194v5.371c.57.787 1.438 1.221 2.523 1.221 1.438 0 2.224-1.248 2.224-3.635h0zm18.759-.081c0 4.259-2.007 7.243-5.534 7.243-1.248 0-2.333-.488-3.011-1.112v4.178l-3.744 1.872V16.754h3.744v.895c.705-.624 1.655-1.194 3.011-1.194 3.038 0 5.534 2.279 5.534 7.596zm-3.798.081c0-2.93-.977-4.15-2.441-4.15-1.166 0-1.763.488-2.306 1.194v5.371c.57.787 1.438 1.221 2.523 1.221 1.438 0 2.224-1.248 2.224-3.635h0zm17.728 2.713c0-2.848-2.197-3.771-4.747-4.612-2.523-.814-2.957-1.058-2.957-1.655 0-.624.407-.922 1.926-.922 1.194 0 2.74.38 4.15 1.139l1.194-2.957c-1.519-.841-3.472-1.383-5.263-1.383-3.337 0-5.697 1.275-5.697 4.232 0 3.011 2.197 3.852 5.615 4.883 1.573.461 2.089.787 2.089 1.438 0 .732-.434 1.085-1.899 1.085-1.818 0-3.418-.461-4.937-1.302l-1.248 2.848c1.519 1.004 3.716 1.655 5.968 1.655 3.201 0 5.805-1.166 5.805-4.449h0z" fill="#1b2b39"/></svg>
