<svg width="224" height="215" xmlns="http://www.w3.org/2000/svg" xmlns:xlink="http://www.w3.org/1999/xlink" xml:space="preserve" overflow="hidden"><defs><clipPath id="clip0"><rect x="3520" y="1595" width="224" height="215"/></clipPath></defs><g clip-path="url(#clip0)" transform="translate(-3520 -1595)"><path d="M3632.11 1603.41 3714.52 1643.21 3734.84 1732.67 3677.77 1804.28 3586.46 1804.28 3529.39 1732.67 3549.71 1643.21 3632.11 1603.41M3632.11 1597 3544.69 1639.33 3523 1734.04 3583.49 1810 3680.51 1810 3741 1734.04 3719.31 1639.33 3632.11 1597Z" fill="#1D428A" fill-rule="evenodd" fill-opacity="1"/><path d="M3598.92 1782C3598.01 1782 3596.87 1781.77 3595.95 1781.32 3592.53 1779.72 3591.16 1775.61 3592.53 1771.97 3592.99 1770.6 3593.67 1769.23 3594.81 1767.63 3596.64 1765.12 3598.01 1762.84 3599.15 1760.56 3599.38 1760.11 3599.38 1760.11 3599.38 1760.11 3598.92 1759.2 3598.92 1758.28 3599.15 1757.6 3588.19 1750.3 3580.21 1740.49 3575.64 1728.18 3574.73 1728.18 3573.81 1727.72 3573.36 1727.5 3573.13 1727.5 3572.9 1727.5 3572.9 1727.72L3572.67 1727.72C3570.39 1728.18 3568.11 1729.09 3565.37 1730.23 3563.54 1730.92 3561.72 1731.6 3559.44 1731.6 3555.78 1731.6 3552.82 1729.32 3552.13 1725.9 3551.45 1722.71 3553.5 1719.06 3556.7 1717.69 3558.29 1717.01 3559.89 1716.78 3561.95 1716.55 3564.68 1716.55 3567.42 1716.09 3570.16 1715.64 3570.85 1715.41 3570.85 1715.41 3570.85 1715.41 3571.08 1714.95 3571.53 1714.27 3572.45 1713.58 3570.85 1700.36 3573.59 1688.04 3580.43 1676.64 3579.98 1675.96 3579.75 1675.27 3579.75 1674.36 3579.75 1674.13 3579.29 1673.9 3578.84 1673.68 3577.01 1672.31 3574.96 1670.94 3572.67 1669.57 3571.3 1668.66 3569.71 1667.75 3568.34 1666.38 3565.6 1663.64 3565.37 1659.54 3567.42 1656.8 3569.71 1653.83 3573.81 1653.15 3577.24 1655.2 3579.06 1656.34 3580.43 1657.94 3581.57 1659.08 3583.63 1661.36 3585.45 1662.96 3587.28 1664.55 3587.51 1664.78 3587.74 1664.78 3587.74 1664.78 3588.42 1664.55 3589.33 1664.55 3590.02 1665.01 3599.61 1655.89 3611.02 1650.41 3624.03 1648.59 3624.26 1647.91 3624.71 1647.22 3625.4 1646.54 3625.4 1646.54 3625.4 1646.31 3625.4 1646.08 3625.4 1643.12 3624.94 1640.38 3624.48 1637.64 3624.26 1635.82 3624.03 1634.22 3624.26 1632.63 3624.71 1628.75 3627.91 1625.78 3631.79 1626.01 3635.21 1626.24 3637.95 1628.75 3638.64 1632.17L3638.64 1633.08 3638.41 1637.41C3638.18 1639.24 3637.95 1641.06 3637.72 1642.89 3637.49 1643.8 3637.49 1644.94 3637.49 1646.08L3637.49 1646.54C3637.95 1646.99 3638.41 1647.68 3638.86 1648.59 3642.97 1649.27 3646.85 1649.96 3650.28 1651.33 3658.95 1654.29 3666.48 1658.85 3672.87 1665.01 3673.56 1664.55 3674.47 1664.55 3675.38 1664.78 3675.38 1664.78 3675.61 1664.78 3676.07 1664.32 3677.89 1662.73 3679.72 1660.9 3681.54 1659.08 3682.69 1657.71 3684.06 1656.34 3685.65 1655.43 3687.94 1654.06 3690.45 1653.83 3692.73 1654.98 3694.78 1655.89 3696.38 1657.71 3696.61 1660.22 3696.84 1662.04 3696.84 1664.55 3694.1 1667.06 3692.73 1668.43 3691.36 1669.11 3689.76 1670.03 3687.02 1671.62 3684.97 1672.99 3683.14 1674.36 3682.91 1674.36 3682.91 1674.36 3682.91 1674.36 3682.91 1675.27 3682.69 1675.96 3682.23 1676.64 3687.48 1685.31 3690.45 1694.66 3690.9 1704.46 3691.13 1707.2 3690.9 1710.16 3690.67 1713.13 3691.36 1713.58 3691.82 1714.27 3692.04 1714.72 3692.27 1715.18 3692.5 1715.18 3694.1 1715.41L3694.55 1715.41C3696.15 1715.64 3697.75 1715.86 3699.35 1715.86 3700.95 1716.09 3702.54 1716.09 3704.14 1716.32 3706.88 1716.78 3709.16 1718.37 3710.3 1720.88 3711.44 1723.39 3711.22 1725.9 3709.39 1727.95 3707.56 1730.23 3705.05 1731.14 3702.09 1730.69 3700.26 1730.46 3698.43 1729.78 3696.84 1729.09 3696.15 1728.86 3695.47 1728.41 3694.55 1728.18L3694.33 1728.18C3692.73 1727.72 3691.13 1727.04 3689.53 1726.81 3689.3 1726.81 3689.3 1726.81 3689.3 1726.81 3688.62 1727.27 3687.94 1727.5 3687.25 1727.72 3685.2 1733.65 3682.23 1739.13 3678.35 1743.92 3674.24 1749.16 3669.22 1753.72 3663.74 1757.14 3663.97 1758.05 3663.74 1758.74 3663.51 1759.2 3663.51 1759.2 3663.51 1759.42 3663.97 1760.56 3665.11 1762.62 3666.48 1764.9 3668.08 1767.18 3668.99 1768.55 3670.13 1770.14 3670.59 1772.19 3671.5 1775.39 3670.13 1778.81 3667.39 1780.4 3664.43 1782 3661 1781.54 3658.49 1779.04 3656.89 1777.21 3656.21 1775.16 3655.52 1773.56 3654.84 1771.05 3653.93 1768.09 3652.56 1765.35 3652.33 1765.12 3652.33 1764.9 3652.33 1764.9 3651.42 1764.67 3650.73 1764.21 3650.28 1763.76 3637.72 1767.86 3624.94 1767.86 3612.62 1763.76 3612.16 1764.44 3611.25 1764.9 3610.56 1765.12 3610.56 1765.12 3610.33 1765.35 3610.1 1765.81 3608.96 1768.09 3608.05 1770.6 3607.37 1773.56 3606.91 1775.16 3606.22 1776.53 3605.54 1777.9 3603.94 1780.4 3601.43 1782 3598.92 1782ZM3604.86 1758.28C3605.54 1760.34 3604.63 1762.16 3604.4 1762.84 3603.26 1765.35 3601.66 1767.86 3599.61 1770.83 3598.69 1771.97 3598.24 1772.88 3598.01 1773.79 3597.55 1774.7 3598.01 1775.84 3598.69 1776.07 3599.38 1776.3 3600.29 1776.07 3600.75 1775.16 3601.2 1774.47 3601.66 1773.33 3601.89 1772.19 3602.8 1769 3603.71 1766.26 3604.86 1763.76 3605.31 1762.84 3606.22 1761.02 3608.28 1760.11 3608.74 1759.42 3609.19 1758.74 3610.1 1758.28 3611.7 1757.6 3613.07 1758.05 3613.53 1758.28 3625.17 1762.39 3637.04 1762.39 3648.91 1758.51 3649.82 1758.28 3651.42 1757.6 3652.79 1758.51 3653.47 1758.97 3653.93 1759.42 3654.38 1760.11 3655.75 1760.56 3656.89 1761.7 3657.58 1763.3 3659.18 1766.49 3660.09 1769.69 3661 1772.42 3661.46 1773.79 3661.92 1774.93 3662.6 1775.61 3663.29 1776.3 3663.97 1776.3 3664.43 1776.07 3664.88 1775.84 3665.34 1774.93 3665.11 1774.25 3664.88 1773.11 3664.2 1771.97 3663.29 1771.05 3661.46 1768.55 3660.09 1766.26 3658.72 1763.76 3658.26 1762.84 3657.12 1760.79 3657.81 1758.51 3657.12 1756.91 3657.35 1755.09 3659.63 1753.72 3665.11 1750.53 3669.68 1746.2 3673.78 1741.18 3677.44 1736.39 3680.4 1731.14 3682.23 1725.44 3683.14 1722.93 3684.97 1722.25 3686.57 1722.48 3687.71 1721.79 3689.3 1721.57 3690.9 1721.79 3692.73 1722.25 3694.55 1722.71 3696.38 1723.39L3696.61 1723.39C3697.52 1723.62 3698.43 1724.07 3699.12 1724.3 3700.49 1724.76 3701.63 1725.44 3703 1725.67 3704.14 1725.9 3704.6 1725.44 3705.05 1724.99 3705.28 1724.53 3705.51 1724.3 3705.28 1723.85 3704.83 1723.16 3704.37 1722.71 3703.46 1722.71 3701.86 1722.48 3700.49 1722.25 3698.89 1722.25 3697.29 1722.02 3695.47 1721.79 3693.87 1721.57L3693.41 1721.57C3691.82 1721.34 3689.08 1721.11 3687.48 1718.6 3686.57 1718.37 3685.88 1717.92 3685.65 1717.46 3684.74 1716.32 3684.74 1714.72 3684.97 1714.27 3685.42 1711.08 3685.42 1708.11 3685.2 1705.37 3684.74 1696.02 3681.77 1687.13 3676.75 1679.38 3676.29 1678.69 3675.61 1677.32 3676.07 1675.96 3676.29 1675.27 3676.75 1674.59 3677.44 1673.9 3677.66 1672.53 3678.35 1671.17 3679.72 1670.03 3681.77 1668.43 3684.06 1666.83 3687.25 1665.01 3688.39 1664.32 3689.53 1663.64 3690.22 1662.96 3691.13 1662.04 3691.13 1661.36 3690.9 1661.13 3690.9 1660.68 3690.67 1660.22 3690.22 1660.22 3689.76 1659.99 3689.08 1659.99 3688.39 1660.45 3687.48 1661.13 3686.57 1661.82 3685.65 1662.96 3683.83 1665.24 3681.77 1667.06 3679.49 1668.89 3678.58 1669.8 3676.98 1670.71 3674.93 1670.71 3674.24 1671.17 3673.33 1671.62 3672.64 1671.62 3671.05 1671.62 3669.9 1670.48 3669.45 1670.03 3663.51 1664.1 3656.44 1659.76 3648.45 1657.03 3645.03 1655.89 3641.15 1654.98 3636.81 1654.52 3636.35 1654.52 3635.21 1654.52 3634.07 1653.38 3633.61 1652.69 3633.16 1651.78 3633.39 1650.87 3633.39 1650.87 3633.39 1650.87 3633.16 1650.64 3632.24 1649.73 3631.79 1648.36 3631.79 1646.99L3631.79 1646.31C3631.79 1644.94 3631.79 1643.8 3632.02 1642.2 3632.24 1640.38 3632.47 1638.55 3632.7 1636.73L3632.93 1635.13 3632.93 1634.91 3632.93 1634.45C3632.93 1634.22 3632.93 1633.99 3632.93 1633.77 3632.93 1632.85 3632.24 1631.94 3631.56 1631.94 3630.65 1631.94 3629.96 1632.63 3629.96 1633.54 3629.73 1634.45 3629.96 1635.59 3630.19 1636.96 3630.65 1639.92 3631.1 1643.12 3631.1 1646.31 3631.1 1647.22 3631.1 1649.05 3629.51 1650.64 3629.51 1650.64 3629.51 1650.64 3629.51 1650.64 3629.51 1651.55 3629.28 1652.47 3628.82 1653.15 3628.14 1653.83 3627.22 1654.29 3626.08 1654.29 3625.85 1654.29 3625.85 1654.29 3625.63 1654.29 3625.4 1654.29 3625.17 1654.29 3624.94 1654.29 3612.62 1655.89 3602.12 1660.9 3593.44 1669.57 3592.99 1670.03 3591.85 1671.17 3590.02 1671.17 3589.33 1671.17 3588.65 1670.94 3587.97 1670.48 3586.6 1670.48 3585.23 1670.03 3583.86 1669.11 3581.8 1667.52 3579.75 1665.47 3577.47 1662.96 3576.33 1661.82 3575.41 1660.9 3574.5 1660.22 3573.59 1659.76 3572.67 1659.76 3572.22 1660.45 3571.76 1661.13 3571.99 1662.04 3572.67 1662.73 3573.59 1663.64 3574.73 1664.32 3575.64 1664.78 3578.15 1666.15 3580.43 1667.75 3582.72 1669.34 3583.63 1670.03 3585.23 1671.39 3585.68 1673.68 3586.37 1674.13 3586.6 1674.82 3586.82 1675.5 3587.28 1677.1 3586.37 1678.46 3585.91 1679.15 3579.29 1689.87 3576.55 1701.73 3578.15 1714.04 3578.61 1717.23 3576.55 1718.37 3575.41 1718.6 3574.04 1720.65 3571.99 1720.88 3571.08 1721.11 3568.11 1721.79 3564.91 1722.02 3561.95 1722.25 3560.58 1722.25 3559.44 1722.48 3558.52 1722.93 3557.61 1723.16 3557.38 1724.07 3557.38 1724.76 3557.61 1725.44 3558.29 1725.9 3559.21 1725.9 3560.35 1725.9 3561.72 1725.44 3562.86 1724.99 3565.83 1723.85 3568.56 1722.93 3571.08 1722.25L3571.3 1722.25C3572.45 1722.02 3574.04 1721.57 3575.87 1722.48 3576.1 1722.71 3576.33 1722.71 3576.33 1722.71 3577.01 1722.48 3578.15 1722.48 3578.84 1722.93 3580.21 1723.62 3580.43 1724.76 3580.66 1725.21 3585 1737.3 3592.53 1746.88 3603.49 1753.72 3605.31 1754.86 3605.54 1756.91 3604.86 1758.28ZM3654.84 1761.02C3654.84 1761.02 3654.84 1761.02 3654.84 1761.02 3654.84 1761.02 3654.84 1761.02 3654.84 1761.02ZM3608.05 1760.79C3608.05 1760.79 3608.05 1760.79 3608.05 1760.79 3608.05 1760.79 3608.05 1760.79 3608.05 1760.79ZM3604.4 1757.6C3604.4 1757.6 3604.4 1757.6 3604.4 1757.6 3604.4 1757.6 3604.4 1757.6 3604.4 1757.6ZM3658.26 1757.37C3658.26 1757.37 3658.26 1757.37 3658.26 1757.37 3658.26 1757.37 3658.26 1757.37 3658.26 1757.37ZM3575.64 1717.69C3575.64 1717.69 3575.64 1717.69 3575.64 1717.69 3575.64 1717.69 3575.64 1717.69 3575.64 1717.69ZM3584.31 1672.76C3584.31 1672.76 3584.31 1672.76 3584.31 1672.76 3584.31 1672.76 3584.31 1672.76 3584.31 1672.76ZM3631.33 1755.77C3626.54 1755.77 3621.75 1755.09 3617.18 1753.49 3616.72 1753.27 3615.13 1752.81 3614.67 1751.44 3613.99 1749.84 3614.9 1748.48 3615.13 1748.02 3617.18 1744.37 3619.23 1740.49 3621.29 1736.85L3625.4 1729.32C3626.77 1727.04 3628.82 1725.67 3631.33 1725.67 3633.84 1725.67 3635.9 1727.04 3637.27 1729.32 3639.09 1732.51 3640.69 1735.71 3642.52 1738.67L3645.48 1744.14C3646.17 1745.28 3646.85 1746.65 3647.54 1747.79 3647.76 1748.25 3648.68 1749.84 3647.99 1751.44 3647.31 1753.04 3645.71 1753.49 3645.25 1753.72 3640.69 1754.86 3635.9 1755.55 3631.33 1755.77ZM3621.06 1748.7C3624.48 1749.62 3627.91 1750.07 3631.33 1750.07 3634.75 1750.07 3637.95 1749.62 3641.37 1748.7 3640.92 1748.02 3640.69 1747.34 3640.23 1746.88L3637.27 1741.41C3635.44 1738.21 3633.84 1735.25 3632.02 1732.06 3631.79 1731.6 3631.33 1731.14 3631.1 1731.37 3630.88 1731.37 3630.42 1731.6 3630.19 1732.06L3626.08 1739.58C3624.48 1742.55 3622.89 1745.51 3621.06 1748.7ZM3655.98 1748.25C3655.75 1748.25 3655.3 1748.25 3655.07 1748.02 3653.47 1747.56 3653.01 1746.2 3652.79 1745.74 3650.73 1740.49 3648.45 1735.25 3646.4 1730.23L3644.57 1725.67C3644.34 1724.99 3643.88 1724.07 3644.11 1722.93 3644.11 1721.11 3645.03 1719.29 3646.62 1717.92 3648.22 1716.78 3650.05 1716.09 3651.87 1716.55 3656.44 1717.23 3661 1718.15 3665.57 1718.83L3673.33 1720.2C3673.78 1720.2 3675.38 1720.43 3676.07 1722.02 3676.52 1722.93 3676.75 1724.07 3676.07 1725.44 3672.41 1734.79 3666.48 1742.32 3658.26 1747.79 3658.04 1747.56 3657.12 1748.25 3655.98 1748.25ZM3649.59 1722.93C3649.59 1722.93 3649.59 1723.16 3649.59 1723.16L3651.42 1727.72C3653.24 1732.06 3655.07 1736.62 3656.89 1740.95 3662.6 1736.62 3666.71 1731.14 3669.68 1724.76L3664.2 1723.85C3659.63 1723.16 3655.07 1722.25 3650.5 1721.57 3650.05 1721.57 3649.82 1721.57 3649.82 1721.79 3649.82 1722.25 3649.59 1722.48 3649.59 1722.93ZM3606.68 1748.02C3605.54 1748.02 3604.63 1747.34 3604.17 1747.11 3596.18 1741.63 3590.48 1734.34 3586.82 1725.21 3586.6 1724.53 3585.91 1723.16 3586.82 1721.79 3587.28 1720.88 3588.42 1720.2 3589.56 1719.97 3595.04 1719.06 3600.75 1718.15 3606.22 1717.23L3612.16 1716.32C3614.21 1716.32 3616.04 1717.23 3617.41 1718.83 3618.78 1720.43 3619.23 1722.48 3618.78 1724.3 3618.55 1725.21 3618.32 1725.9 3618.09 1726.58L3615.81 1732.28C3613.99 1736.62 3612.16 1740.95 3610.33 1745.51 3610.1 1745.97 3609.42 1747.56 3607.82 1748.02 3607.37 1748.02 3606.91 1748.02 3606.68 1748.02ZM3592.99 1725.21C3595.95 1731.6 3600.29 1736.85 3605.77 1741.18 3607.37 1737.3 3608.74 1733.65 3610.33 1730L3612.62 1724.3C3612.84 1723.85 3612.84 1723.39 3613.07 1723.16 3613.07 1722.93 3613.07 1722.71 3612.84 1722.48 3612.62 1722.25 3612.39 1722.25 3612.39 1722.02L3607.14 1722.93C3602.34 1723.62 3597.55 1724.53 3592.99 1725.21ZM3584.31 1715.86 3583.63 1712.9C3582.94 1709.71 3583.17 1706.74 3583.4 1704.23 3583.86 1696.94 3586.14 1690.09 3589.56 1683.71 3589.79 1683.25 3590.7 1681.89 3592.3 1681.66 3593.44 1681.43 3594.36 1681.89 3595.5 1682.8 3600.75 1687.59 3606 1692.15 3611.25 1696.94 3613.53 1698.99 3614.44 1701.27 3613.76 1704.01 3613.07 1706.52 3611.47 1708.34 3608.51 1709.02 3603.26 1710.62 3598.01 1711.99 3592.76 1713.58L3584.31 1715.86ZM3593.44 1688.5C3590.93 1693.52 3589.33 1698.99 3589.11 1704.46 3589.11 1705.83 3588.88 1707.2 3588.88 1708.34L3591.16 1707.66C3596.41 1706.06 3601.66 1704.69 3606.91 1703.09 3608.05 1702.87 3608.05 1702.41 3608.28 1702.18 3608.28 1701.95 3608.51 1701.5 3607.59 1700.81 3602.8 1696.94 3598.24 1692.6 3593.44 1688.5ZM3675.84 1714.95C3675.15 1714.95 3674.7 1714.72 3674.47 1714.72L3667.85 1712.9C3663.06 1711.53 3658.26 1710.16 3653.47 1708.8 3650.96 1708.11 3649.13 1706.29 3648.68 1703.78 3648.22 1701.5 3648.91 1698.99 3650.96 1697.16 3653.47 1694.88 3656.21 1692.38 3658.72 1690.09 3661.46 1687.59 3664.2 1685.31 3666.94 1682.8 3667.39 1682.57 3668.53 1681.43 3670.13 1681.66 3671.73 1681.89 3672.64 1683.25 3672.87 1683.71 3676.52 1690.09 3678.58 1696.71 3679.26 1703.78L3679.26 1704.23C3679.26 1705.37 3679.49 1706.74 3679.49 1708.11 3679.49 1709.48 3679.49 1710.62 3679.26 1711.76 3679.03 1713.36 3678.35 1714.04 3677.66 1714.5 3677.21 1714.72 3676.52 1714.95 3675.84 1714.95ZM3668.99 1688.5C3666.94 1690.32 3664.65 1692.38 3662.6 1694.2 3660.09 1696.48 3657.35 1698.99 3654.84 1701.27 3654.38 1701.73 3654.16 1701.95 3654.16 1702.41 3654.16 1702.64 3654.61 1702.87 3655.07 1703.09 3659.86 1704.46 3664.65 1705.83 3669.45 1707.2L3673.56 1708.34C3673.56 1708.11 3673.56 1707.88 3673.56 1707.88L3673.56 1707.66C3673.56 1706.74 3673.56 1705.6 3673.33 1704.46L3673.33 1704.01C3673.1 1698.76 3671.5 1693.52 3668.99 1688.5ZM3598.46 1672.53C3605.08 1666.38 3613.07 1662.27 3622.2 1660.45L3622.43 1660.45C3622.89 1660.45 3623.11 1660.22 3623.57 1660.22 3624.71 1659.99 3626.08 1659.76 3627.45 1660.9 3628.59 1662.04 3628.59 1663.41 3628.59 1664.55L3628.14 1670.48C3627.91 1675.73 3627.45 1680.74 3627.22 1685.99 3626.99 1688.5 3625.63 1690.55 3623.57 1691.69 3622.66 1692.15 3621.75 1692.38 3620.83 1692.38 3619.46 1692.38 3618.09 1691.92 3616.95 1691.24 3613.99 1689.18 3611.02 1686.9 3607.82 1684.85 3604.86 1682.8 3601.89 1680.52 3598.69 1678.46 3597.78 1677.55 3597.1 1676.64 3597.1 1675.5 3596.87 1673.9 3598.01 1672.99 3598.46 1672.53M3604.17 1675.04C3606.45 1676.64 3608.74 1678.24 3611.02 1679.83 3613.99 1681.89 3616.95 1684.17 3619.92 1686.22 3620.38 1686.45 3620.6 1686.45 3620.83 1686.45 3621.06 1686.45 3621.29 1686.22 3621.29 1685.53 3621.52 1680.29 3621.97 1675.27 3622.2 1670.03L3622.43 1666.15C3615.81 1667.52 3609.65 1670.71 3604.17 1675.04ZM3641.83 1692.15C3640.69 1692.15 3639.78 1691.92 3639.09 1691.46 3637.49 1690.78 3635.44 1688.95 3635.21 1685.31L3634.07 1665.69C3634.07 1663.64 3634.07 1662.27 3635.21 1661.13 3636.58 1659.99 3637.95 1660.22 3639.55 1660.45 3648.45 1662.04 3656.44 1666.15 3663.51 1672.31 3663.97 1672.76 3665.11 1673.9 3665.11 1675.5 3665.11 1677.32 3663.74 1678.24 3663.06 1678.46 3657.35 1682.34 3651.65 1686.45 3645.94 1690.55 3644.8 1691.69 3643.2 1692.15 3641.83 1692.15ZM3640 1666.15 3641.15 1684.85C3641.15 1685.99 3641.37 1685.99 3641.6 1686.22 3641.83 1686.45 3642.29 1686.45 3643.2 1685.76 3648.22 1682.11 3653.24 1678.46 3658.49 1675.04 3652.56 1670.48 3646.62 1667.75 3640 1666.15Z" fill="#1D428A" fill-rule="evenodd" fill-opacity="1"/><path d="M3631.72 1719 3623.19 1714.6 3621 1704.87 3626.91 1697 3636.31 1697 3642 1704.87 3640.03 1714.6 3631.72 1719ZM3628 1710.66 3631.72 1712.52 3635.44 1710.66 3636.31 1706.49 3633.91 1703.25 3629.53 1703.25 3626.91 1706.73 3628 1710.66Z" fill="#1D428A" fill-rule="evenodd" fill-opacity="1"/></g></svg>