<?xml version="1.0" encoding="UTF-8"?>
<svg width="73px" height="72px" viewBox="0 0 73 72" version="1.1" xmlns="http://www.w3.org/2000/svg" xmlns:xlink="http://www.w3.org/1999/xlink">
    <title>iocn</title>
    <g id="Designs" stroke="none" stroke-width="1" fill="none" fill-rule="evenodd">
        <g id="Home-Page-Color-Op2" transform="translate(-1004.000000, -545.000000)" fill="#0095D3">
            <g id="Callout-3" transform="translate(890.000000, 512.000000)">
                <g id="iocn" transform="translate(114.000000, 33.000000)">
                    <path d="M64,58.50038 C64,61.5378238 61.5373249,64 58.4992297,64 C55.4626751,64 53,61.5378238 53,58.50038 C53,55.4621762 55.4626751,53 58.4992297,53 C61.5373249,53 64,55.4621762 64,58.50038" id="Fill-1"></path>
                    <path d="M13.3948156,70.1054147 C7.05750313,70.1054147 1.90111771,64.8842779 1.90111771,58.4664253 C1.90111771,52.0485726 7.05750313,46.8274358 13.3948156,46.8274358 C19.7328885,46.8274358 24.8885135,52.0485726 24.8885135,58.4664253 C24.8885135,64.8842779 19.7328885,70.1054147 13.3948156,70.1054147 M47.3747948,13.5338779 C47.3747948,7.11602526 52.5311802,1.89488842 58.8692531,1.89488842 C65.2065656,1.89488842 70.362951,7.11602526 70.362951,13.5338779 C70.362951,19.9517305 65.2065656,25.1728674 58.8692531,25.1728674 C52.5311802,25.1728674 47.3747948,19.9517305 47.3747948,13.5338779 M58.8692531,70.1054147 C52.5311802,70.1054147 47.3747948,64.8842779 47.3747948,58.4664253 C47.3747948,52.0485726 52.5311802,46.8274358 58.8692531,46.8274358 C64.4377844,46.8274358 69.090774,50.8594358 70.1393885,56.1912253 L72.0594406,56.1912253 C71.0389615,50.1113937 66.015649,45.4169937 59.819774,44.9758989 L59.819774,27.0190989 C66.7715031,26.5241937 72.2639927,20.6838568 72.2639927,13.5338779 C72.2639927,6.05952 66.2665865,0.000151578947 58.8692531,0.000151578947 C51.8315969,0.000151578947 46.0737219,5.48655158 45.5277427,12.4553937 L18.6949198,12.4553937 C18.1976073,9.94221474 16.0045656,8.04823579 13.3720031,8.04823579 C10.3729198,8.04823579 7.94262813,10.5038147 7.94262813,13.5338779 C7.94262813,16.5631832 10.3729198,19.01952 13.3720031,19.01952 C16.0950552,19.01952 18.3436073,16.9913937 18.733701,14.3501305 L45.5140552,14.3501305 C45.9155552,21.1226779 51.2339094,26.5431411 57.9187323,27.0190989 L57.9187323,44.9812042 C51.2597635,45.4548884 45.9550969,50.8351832 45.5186177,57.5721095 L26.745451,57.5721095 C26.3082115,50.8351832 21.0043052,45.4548884 14.3453365,44.9812042 L14.3453365,27.02592 C20.290274,26.6030147 25.1592219,22.2640674 26.4466073,16.54272 L24.4854927,16.54272 C23.1707323,21.5038989 18.7032844,25.1728674 13.3948156,25.1728674 C7.05750313,25.1728674 1.90111771,19.9517305 1.90111771,13.5338779 C1.90111771,7.11602526 7.05750313,1.89488842 13.3948156,1.89488842 C18.7010031,1.89488842 23.1661698,5.55930947 24.4832115,10.5159411 L26.444326,10.5159411 C25.0854615,4.49674105 19.764826,0.000151578947 13.3948156,0.000151578947 C5.99672188,0.000151578947 7.60416667e-05,6.05952 7.60416667e-05,13.5338779 C7.60416667e-05,20.6838568 5.49180521,26.5241937 12.4442948,27.0190989 L12.4442948,44.9812042 C5.49180521,45.4753516 7.60416667e-05,51.3156884 7.60416667e-05,58.4664253 C7.60416667e-05,65.9407832 5.99672188,72.0001516 13.3948156,72.0001516 C20.458326,72.0001516 26.2314094,66.4720674 26.7401281,59.4668463 L45.5239406,59.4668463 C46.0326594,66.4720674 51.8057427,72.0001516 58.8692531,72.0001516 C65.563201,72.0001516 71.0952323,67.0313937 72.0898573,60.54912 L70.1682844,60.54912 C69.194951,65.9748884 64.5039406,70.1054147 58.8692531,70.1054147" id="Fill-3"></path>
                </g>
            </g>
        </g>
    </g>
</svg>