<?xml version="1.0" encoding="UTF-8"?>
<svg width="20px" height="20px" viewBox="0 0 20 20" version="1.1" xmlns="http://www.w3.org/2000/svg" xmlns:xlink="http://www.w3.org/1999/xlink">
    <title>Fill 1</title>
    <g id="Designs" stroke="none" stroke-width="1" fill="none" fill-rule="evenodd">
        <g id="Documents" transform="translate(-481.000000, -351.000000)" fill="#0195D2" stroke="#0195D2">
            <g id="search" transform="translate(300.000000, 339.000000)">
                <path d="M194.327631,16.2802632 C195.582658,17.5345789 196.210289,19.0465789 196.210526,20.8157895 C196.211473,21.3171842 196.160079,21.7989211 196.056579,22.2605263 C195.801973,23.4182105 195.229526,24.4366316 194.339473,25.3157895 L194.315789,25.3394737 C193.078526,26.5862105 191.578368,27.2100526 189.815789,27.2105263 C188.046579,27.2102895 186.534579,26.5826579 185.280263,25.3276316 C184.040631,24.0887105 183.420815,22.5847632 183.421052,20.8157895 C183.420579,19.0463421 184.040394,17.5345789 185.280263,16.2802632 C186.534579,15.0403947 188.046342,14.4205789 189.815789,14.4210526 C191.584763,14.4208158 193.08871,15.0406316 194.327631,16.2802632 M199.999999,30.2894731 C200.000236,30.0928942 199.929184,29.9233152 199.786842,29.7802626 L195.819736,25.8131575 C196.64371,24.8544207 197.184421,23.7727628 197.442105,22.5684207 L197.442105,22.5565786 C197.567631,21.9997629 197.630631,21.4194997 197.631578,20.8157892 C197.631815,18.6534209 196.866105,16.8060525 195.33421,15.2736841 C193.817947,13.7581316 191.978394,13.0002368 189.815789,13 C187.653658,13.0004737 185.806289,13.7583684 184.273684,15.2736841 C182.758368,16.8062893 182.000474,18.6536577 182,20.8157892 C182.000237,22.9783944 182.758132,24.817947 184.273684,26.3342101 C185.806053,27.8661048 187.653421,28.6318153 189.815789,28.6315784 C191.736579,28.6320521 193.402526,28.0281048 194.813157,26.8197364 L198.780263,30.7868415 C198.923315,30.9291836 199.092894,31.0002363 199.289473,30.9999994 C199.486052,31.0002363 199.651842,30.9291836 199.786842,30.7868415 C199.929184,30.6518415 200.000236,30.4860521 199.999999,30.2894731" id="Fill-1"></path>
            </g>
        </g>
    </g>
</svg>