<?xml version="1.0" encoding="UTF-8"?>
<svg width="81px" height="97px" viewBox="0 0 81 97" version="1.1" xmlns="http://www.w3.org/2000/svg" xmlns:xlink="http://www.w3.org/1999/xlink">
    <title>icon</title>
    <defs>
        <polygon id="path-1" points="0 0.1502 80.5988 0.1502 80.5988 95 0 95"></polygon>
    </defs>
    <g id="Designs" stroke="none" stroke-width="1" fill="none" fill-rule="evenodd">
        <g id="Home-Page-Color-Op1" transform="translate(-320.000000, -1706.000000)">
            <g id="Use-Cases" transform="translate(250.000000, 1072.000000)">
                <g id="1-copy" transform="translate(0.000000, 572.000000)">
                    <g id="icon" transform="translate(70.000000, 62.000000)">
                        <g id="Group-3" transform="translate(0.000000, 0.850000)">
                            <mask id="mask-2" fill="white">
                                <use xlink:href="#path-1"></use>
                            </mask>
                            <g id="Clip-2"></g>
                            <path d="M40.2828,0.1502 L38.1258,1.5482 C32.7818,4.9152 27.1328,7.8982 21.3248,10.4172 C15.4248,13.0502 9.2668,15.2242 3.0348,16.8732 L-0.0002,17.6432 L-0.0002,41.8772 C-0.0002,79.3592 37.3048,93.9012 38.9348,94.5182 L40.2988,95.0002 L41.6638,94.5182 L41.6448,94.4632 C45.7808,92.9952 80.5988,78.5642 80.5988,41.8772 L80.5988,17.6432 L77.5708,16.8752 C71.3388,15.2122 65.1928,13.0302 59.2898,10.3842 C53.4938,7.8702 47.8448,4.8882 42.4908,1.5142 L40.2828,0.1502 Z M40.3148,3.1082 L41.1578,3.6292 C46.6148,7.0672 52.3808,10.1122 58.2678,12.6652 C64.2888,15.3642 70.5668,17.5932 76.9558,19.2982 L78.0988,19.5882 L78.0988,41.8772 C78.0988,56.5472 72.3438,69.2142 60.9918,79.5262 C51.3168,88.3162 41.2338,91.9562 40.8088,92.1072 L40.2138,92.3182 L39.7958,92.1712 C37.9518,91.4682 2.4998,77.4692 2.4998,41.8772 L2.4998,19.5872 L3.6748,19.2902 C10.0358,17.6062 16.3178,15.3892 22.3198,12.7112 C28.2378,10.1442 34.0038,7.1002 39.4858,3.6462 L40.3148,3.1082 L40.3148,3.1082 Z" id="Fill-1" fill="#FFFFFF" mask="url(#mask-2)"></path>
                        </g>
                        <path d="M40.9839,47.2805 C34.2699,47.2805 27.8789,49.9595 22.9869,54.8235 C22.6369,55.1725 22.2909,55.5365 21.9579,55.9065 C21.8009,56.0825 21.7129,56.3285 21.7129,56.5945 L21.7129,65.8925 C21.7129,66.4065 22.0689,66.8425 22.4909,66.8425 L59.4699,66.8425 C59.8919,66.8425 60.2489084,66.4065 60.2489084,65.8925 L60.2489084,56.5995 C60.2499,56.3195 60.1619,56.0685 59.9999,55.8835 C55.0089,50.3395 48.2529,47.2805 40.9839,47.2805 M59.4699,69.3425 L22.4909,69.3425 C20.6839,69.3425 19.2128976,67.7945 19.2128976,65.8925 L19.2128976,56.5965 C19.2119,55.7175 19.5249,54.8795 20.0949,54.2385 C20.4629,53.8305 20.8409,53.4335 21.2239,53.0515 C26.5879,47.7175 33.6049,44.7805 40.9839,44.7805 C48.9709,44.7805 56.3869,48.1335 61.8679,54.2215 C62.4439,54.8785 62.7539,55.7215 62.7489595,56.6065 L62.7489595,65.8925 C62.7489595,67.7945 61.2779,69.3425 59.4699,69.3425" id="Fill-4" fill="#FFFFFF"></path>
                        <path d="M40.9805,20.882 C35.6455,20.882 31.3055,25.222 31.3055,30.557 C31.3055,35.892 35.6455,40.233 40.9805,40.233 C46.3155,40.233 50.6555,35.892 50.6555,30.557 C50.6555,25.222 46.3155,20.882 40.9805,20.882 M40.9805,42.733 C34.2675,42.733 28.8055,37.271 28.8055,30.557 C28.8055,23.844 34.2675,18.382 40.9805,18.382 C47.6935,18.382 53.1555,23.844 53.1555,30.557 C53.1555,37.271 47.6935,42.733 40.9805,42.733" id="Fill-6" fill="#FFFFFF"></path>
                    </g>
                </g>
            </g>
        </g>
    </g>
</svg>