<svg width="206" height="220" xmlns="http://www.w3.org/2000/svg" xmlns:xlink="http://www.w3.org/1999/xlink" xml:space="preserve" overflow="hidden"><defs><clipPath id="clip0"><rect x="2108" y="1145" width="206" height="220"/></clipPath></defs><g clip-path="url(#clip0)" transform="translate(-2108 -1145)"><path d="M2299.99 1303.48 2299.99 1284.2C2299.99 1273.18 2291.72 1264 2281.61 1264L2278.39 1264C2268.28 1264 2260.01 1272.95 2260.01 1284.2L2260.01 1303.48C2251.51 1309.68 2246 1319.55 2246 1331.03 2246 1349.85 2261.16 1365 2280 1365 2298.84 1365 2314 1349.85 2314 1331.03 2314 1319.55 2308.49 1309.45 2299.99 1303.48ZM2265.99 1284.2C2265.99 1276.17 2271.5 1269.74 2278.39 1269.74L2281.61 1269.74C2288.5 1269.74 2294.01 1276.17 2294.01 1284.2L2294.01 1300.04C2289.65 1297.97 2285.05 1297.05 2280 1297.05 2274.95 1297.05 2270.12 1298.2 2265.99 1300.04L2265.99 1284.2ZM2280.23 1359.03C2264.84 1359.03 2252.2 1346.41 2252.2 1331.03 2252.2 1315.65 2264.84 1303.02 2280.23 1303.02 2295.62 1303.02 2308.26 1315.65 2308.26 1331.03 2308.26 1346.41 2295.62 1359.03 2280.23 1359.03Z" fill="#1D428A" fill-rule="evenodd" fill-opacity="1"/><path d="M2280.1 1322C2277.34 1322 2275 1324.61 2275 1327.68 2275 1329.82 2276.06 1331.71 2277.55 1332.66L2277.55 1338.58C2277.55 1339.53 2278.19 1340 2278.82 1340L2281.16 1340C2282.01 1340 2282.44 1339.29 2282.44 1338.58L2282.44 1332.66C2283.92 1331.71 2284.99 1329.82 2284.99 1327.68 2285.2 1324.61 2282.86 1322 2280.1 1322Z" fill="#1D428A" fill-rule="evenodd" fill-opacity="1"/><path d="M2197.5 1246.52C2229.88 1246.52 2264.08 1241.02 2277.3 1230.94L2277.3 1255 2283 1255 2283 1172.97C2283 1156.71 2239 1148 2197.5 1148 2156 1148 2112 1156.71 2112 1172.97 2112 1189.24 2156 1197.95 2197.5 1197.95 2229.88 1197.95 2264.08 1192.45 2277.3 1182.37L2277.3 1221.55C2277.3 1229.57 2246.98 1240.79 2197.5 1240.79 2148.02 1240.79 2117.7 1229.57 2117.7 1221.55L2117.7 1192.91 2112 1192.91 2112 1221.32C2112 1237.82 2156 1246.52 2197.5 1246.52ZM2197.5 1192.22C2148.02 1192.22 2117.7 1180.99 2117.7 1172.97 2117.7 1164.96 2148.02 1153.73 2197.5 1153.73 2246.98 1153.73 2277.3 1164.96 2277.3 1172.97 2277.3 1180.99 2246.75 1192.22 2197.5 1192.22Z" fill="#1D428A" fill-rule="evenodd" fill-opacity="1"/><path d="M2240 1345.36C2228.14 1347.4 2213.99 1348.54 2197.56 1348.54 2148.05 1348.54 2117.7 1337.4 2117.7 1329.43L2117.7 1301 2112 1301 2112 1329.21C2112 1345.36 2156.04 1354 2197.56 1354 2212.16 1354 2226.99 1352.86 2240 1350.82L2240 1345.36Z" fill="#1D428A" fill-rule="evenodd" fill-opacity="1"/><path d="M2197.56 1301C2212.16 1301 2226.99 1299.85 2240 1297.77L2240 1292C2228.14 1294.08 2213.99 1295.23 2197.56 1295.23 2148.05 1295.23 2117.7 1283.92 2117.7 1275.62L2117.7 1247 2112 1247 2112 1275.62C2112 1292.23 2156.04 1301 2197.56 1301Z" fill="#1D428A" fill-rule="evenodd" fill-opacity="1"/></g></svg>