<svg xmlns="http://www.w3.org/2000/svg" width="118" height="21" stroke="null" fill="rgb(44.705882%,44.313725%,45.490196%)"><path d="M51.285 17.761L46.47 4.167c-.067-.182-.163-.44-.163-.651 0-.594.498-1.149 1.206-1.149.613 0 1.024.412 1.206.996l3.973 11.717 4.021-11.746c.182-.555.546-.967 1.158-.967h.115c.632 0 1.043.412 1.225.967l3.973 11.746 4.04-11.794c.163-.507.507-.919 1.139-.919.68 0 1.158.527 1.158 1.13 0 .211-.086.46-.163.651L64.525 17.78c-.249.718-.728 1.091-1.292 1.091h-.096c-.613 0-1.063-.373-1.292-1.091L57.89 6.216l-3.954 11.545c-.201.718-.68 1.082-1.292 1.082h-.067c-.565 0-1.043-.364-1.292-1.082M86.332 3.545c0-.651.517-1.225 1.158-1.225.68 0 1.206.536 1.206 1.225v2.767c1.158-2.68 3.743-3.944 5.447-3.944.708 0 1.158.527 1.158 1.225a1.19 1.19 0 0 1-1.043 1.216c-3.063.373-5.591 2.728-5.591 7.362v5.476c0 .641-.498 1.225-1.158 1.225-.68 0-1.206-.536-1.206-1.225V3.545m16.61 15.413c-4.27 0-7.773-3.37-7.773-8.309v-.067c0-4.595 3.159-8.309 7.457-8.309 4.586 0 7.218 3.858 7.218 8.08 0 .651-.517 1.11-1.091 1.11H97.485c.316 3.456 2.7 5.399 5.476 5.399 1.924 0 3.331-.766 4.471-1.848.182-.163.383-.278.661-.278.565 0 1.024.46 1.024 1.015a.99.99 0 0 1-.364.766c-1.455 1.493-3.207 2.441-5.84 2.441m4.586-9.209c-.249-2.901-1.857-5.418-4.949-5.418-2.7 0-4.748 2.307-5.045 5.418h9.994zm-37.91 4.231v-.077c0-3.389 2.748-5.189 6.768-5.189a16.27 16.27 0 0 1 4.863.689v-.555c0-2.881-1.752-4.384-4.7-4.384-1.589 0-2.527.211-3.686.737a.98.98 0 0 1-.431.096c-.546 0-1.043-.46-1.043-1.015 0-.507.211-.804.641-.996 1.56-.689 2.719-.919 4.748-.919 2.221 0 3.944.574 5.102 1.781 1.072 1.082 1.618 2.623 1.618 4.681v8.865c0 .689-.498 1.177-1.139 1.177-.68 0-1.13-.507-1.13-1.139V16.21c-1.12 1.455-2.939 2.776-5.725 2.776-2.91 0-5.887-1.714-5.887-5.007m11.65-1.254v-1.541c-1.158-.345-2.719-.699-4.653-.699-2.958 0-4.614 1.321-4.614 3.331v.067c0 2.01 1.838 3.207 3.973 3.207 2.91 0 5.294-1.819 5.294-4.365M8.417 3.363C7.9 2.205 6.626 1.678 5.42 2.224 4.224 2.76 3.783 4.12 4.329 5.278l5.026 11.076c.795 1.733 1.608 2.652 3.178 2.652 1.656 0 2.384-.996 3.178-2.652l4.432-9.784c.048-.115.182-.421.632-.421a.7.7 0 0 1 .708.718v9.487c0 1.455.795 2.652 2.336 2.652 1.522 0 2.365-1.197 2.365-2.652V8.6c0-1.503 1.043-2.47 2.499-2.47 1.426 0 2.384.996 2.384 2.47v7.754c0 1.455.795 2.652 2.336 2.652 1.522 0 2.365-1.197 2.365-2.652V8.6c0-1.503 1.043-2.47 2.499-2.47 1.436 0 2.384.996 2.384 2.47v7.754c0 1.455.795 2.652 2.345 2.652 1.522 0 2.355-1.197 2.355-2.652V7.508c0-3.245-2.566-5.514-5.648-5.514-3.092 0-5.026 2.173-5.026 2.173-1.015-1.359-2.451-2.173-4.834-2.173-2.518 0-4.748 2.173-4.748 2.173-1.024-1.359-2.767-2.173-4.222-2.173-2.25 0-4.021.996-5.112 3.532l-3.207 7.687-4.136-9.851m101.579.968c0-1.11.862-2.01 1.953-2.01 1.11 0 1.953.9 1.953 1.982 0 1.091-.862 2.01-1.953 2.01s-1.953-.9-1.953-1.982m3.542-.029c0-.9-.68-1.637-1.589-1.637-.881 0-1.589.737-1.589 1.637v.029c0 .9.68 1.618 1.589 1.618s1.589-.766 1.589-1.647"/><path d="M111.222 3.516c0-.115.096-.201.211-.201h.651c.258 0 .431.067.546.201.115.115.163.258.163.44 0 .306-.163.488-.383.584l.287.345c.048.038.077.086.077.163 0 .115-.096.182-.211.182-.086 0-.153-.048-.201-.115l-.412-.536h-.316V5c0 .115-.096.201-.201.201-.115 0-.211-.086-.211-.201V3.516zm.842.718c.201 0 .316-.115.316-.278 0-.182-.115-.278-.316-.278h-.431v.555h.431zm0 0"/></svg>
