<svg xmlns="http://www.w3.org/2000/svg" xmlns:xlink="http://www.w3.org/1999/xlink" viewBox="0 0 302 90"><path d="M-40.52-43.78h371.04v174.96H-40.52z" fill="#fff" opacity="0"/><path d="M117.69 82.49v2.92h-1.3V66.04h1.3v8.86c1.17-1.78 2.89-3.34 5.57-3.34 3.26 0 6.58 2.63 6.58 7.03v.05c0 4.41-3.32 7.08-6.58 7.08-2.71 0-4.46-1.54-5.57-3.24zm10.75-3.79v-.05c0-3.56-2.47-5.84-5.31-5.84s-5.52 2.36-5.52 5.81v.05c0 3.48 2.71 5.81 5.52 5.81s5.31-2.15 5.31-5.78zm15.38-6.82h1.43l-5.86 14.01c-1.19 2.84-2.57 3.85-4.51 3.85-1.04 0-1.78-.19-2.68-.58l.45-1.14c.72.34 1.3.5 2.31.5 1.41 0 2.33-.82 3.34-3.18l-6.5-13.45h1.51l5.62 12.1 4.88-12.1zm12.89-5.05h8.33c2.12 0 3.79.58 4.86 1.64.82.82 1.25 1.83 1.25 3.08v.05c0 2.23-1.27 3.42-2.65 4.14 2.18.74 3.69 1.99 3.69 4.51v.05c0 3.32-2.73 5.09-6.87 5.09h-8.6V66.82zm11.17 5.25c0-1.46-1.17-2.36-3.26-2.36h-4.7v4.94h4.46c2.1 0 3.5-.82 3.5-2.52v-.05zm-2.79 5.33h-5.17v5.09h5.41c2.23 0 3.58-.88 3.58-2.55v-.05c0-1.57-1.25-2.49-3.82-2.49zm10.41-6.01h3.21v3.16c.88-2.1 2.49-3.53 4.96-3.42v3.4h-.19c-2.81 0-4.78 1.83-4.78 5.54v5.33h-3.21V71.4z"/><use xlink:href="#B"/><path d="M202.48 81.38v-.05c0-3.03 2.36-4.51 5.79-4.51a11.85 11.85 0 0 1 3.77.58v-.34c0-1.99-1.22-3.05-3.48-3.05-1.57 0-2.73.34-4.01.88l-.85-2.52c1.54-.69 3.05-1.14 5.28-1.14 2.1 0 3.66.56 4.64 1.57 1.04 1.01 1.51 2.49 1.51 4.33v8.31H212v-1.75c-.96 1.14-2.42 2.04-4.56 2.04-2.63 0-4.96-1.51-4.96-4.33zm9.61-1.01v-.96c-.82-.32-1.91-.56-3.18-.56-2.07 0-3.29.88-3.29 2.33v.05c0 1.35 1.19 2.12 2.73 2.12 2.12 0 3.74-1.22 3.74-3zm6.17-1.94v-.05c0-4.64 3.16-7.27 6.5-7.27 2.31 0 3.77 1.14 4.78 2.47v-7.54h3.21v19.37h-3.21v-2.33c-1.03 1.46-2.49 2.63-4.78 2.63-3.29 0-6.5-2.63-6.5-7.27zm11.33 0v-.05c0-2.71-1.91-4.48-4.06-4.48s-4.03 1.7-4.03 4.48v.05c0 2.71 1.86 4.48 4.03 4.48s4.06-1.8 4.06-4.48zm6.42.05v-.05c0-3.98 3.08-7.32 7.3-7.32 2.63 0 4.27.98 5.6 2.42l-2.02 2.15c-.98-1.04-2.02-1.75-3.61-1.75-2.33 0-4.06 2.02-4.06 4.46v.05c0 2.49 1.72 4.48 4.19 4.48 1.51 0 2.63-.69 3.64-1.72l1.94 1.91c-1.38 1.54-3 2.63-5.73 2.63-4.17 0-7.24-3.26-7.24-7.24z"/><use xlink:href="#B" x="65.55"/><path d="M268.96 71.4h3.21v2.12c.9-1.25 2.12-2.42 4.27-2.42 2.02 0 3.45.98 4.19 2.47 1.11-1.49 2.6-2.47 4.72-2.47 3.05 0 4.91 1.94 4.91 5.36v8.94h-3.21v-7.96c0-2.23-1.03-3.42-2.84-3.42s-3 1.22-3 3.48v7.91H278v-7.99c0-2.18-1.06-3.4-2.84-3.4s-3 1.33-3 3.48v7.91h-3.21V71.4z"/><g fill="#727175"><path d="M129.83 43.23L116.67 6.59c-.17-.51-.42-1.18-.42-1.76 0-1.59 1.34-3.1 3.27-3.1 1.68 0 2.77 1.1 3.27 2.68l10.9 31.57 10.98-31.66c.5-1.5 1.51-2.59 3.18-2.59h.34c1.76 0 2.86 1.1 3.36 2.59l10.89 31.66 11.08-31.74c.42-1.34 1.34-2.51 3.1-2.51s3.18 1.42 3.18 3.02c0 .58-.25 1.26-.42 1.77l-13.25 36.72c-.68 1.92-2.02 2.92-3.52 2.92h-.26c-1.67 0-2.93-1-3.53-2.92l-10.8-31.14-10.9 31.14c-.58 1.92-1.85 2.92-3.52 2.92h-.17c-1.59 0-2.93-1-3.6-2.92m95.92-38.32c0-1.77 1.42-3.28 3.18-3.28 1.85 0 3.28 1.42 3.28 3.28v7.44c3.19-7.22 10.26-10.63 14.95-10.63 1.93 0 3.2 1.43 3.2 3.27s-1.18 3.02-2.86 3.28c-8.4 1.01-15.29 7.3-15.29 19.83v14.72c0 1.76-1.34 3.27-3.19 3.27a3.22 3.22 0 0 1-3.27-3.27V4.92m45.36 41.58c-11.69 0-21.23-9.06-21.23-22.36v-.17c0-12.37 8.64-22.35 20.41-22.35 12.58 0 19.74 10.38 19.74 21.78 0 1.74-1.41 2.99-2.96 2.99H256.3c.89 9.31 7.39 14.54 14.97 14.54 5.27 0 9.13-2.07 12.26-4.99.49-.41 1.07-.74 1.81-.74 1.55 0 2.8 1.25 2.8 2.75 0 .74-.32 1.49-1 2.07-4.03 3.9-8.8 6.48-16.04 6.48m12.59-24.86c-.66-7.81-5.11-14.62-13.58-14.62-7.41 0-13.01 6.23-13.82 14.62h27.39z"/><path d="M179.91 33.05v-.17c0-9.12 7.53-13.98 18.5-13.98a46.44 46.44 0 0 1 13.32 1.84v-1.51c0-7.79-4.79-11.81-12.9-11.81-4.36 0-6.89.56-10.08 1.98-.42.17-.84.25-1.17.25-1.51 0-2.86-1.26-2.86-2.76 0-1.34.59-2.16 1.77-2.69 4.26-1.85 7.47-2.46 13-2.46 6.11 0 10.8 1.58 13.98 4.77 2.93 2.93 4.44 7.12 4.44 12.64v23.89c0 1.84-1.34 3.18-3.11 3.18s-3.08-1.34-3.08-3.02v-4.13c-3.02 3.94-8.04 7.46-15.65 7.46-8.04 0-16.17-4.61-16.17-13.48m31.9-3.35v-4.18c-3.18-.92-7.46-1.85-12.73-1.85-8.11 0-12.64 3.53-12.64 8.96v.17c0 5.44 5.02 8.62 10.88 8.62 7.95 0 14.48-4.86 14.48-11.72M12.53 4.44c-1.42-3.1-4.92-4.52-8.19-3.05-3.27 1.45-4.48 5.08-3 8.2l13.74 29.86c2.16 4.68 4.44 7.14 8.71 7.14 4.56 0 6.56-2.68 8.71-7.14l12.1-26.36c.13-.28.51-1.12 1.73-1.12a1.91 1.91 0 0 1 1.9 1.93v25.53c0 3.93 2.18 7.16 6.38 7.16s6.46-3.23 6.46-7.16V18.55c0-4.03 2.89-6.64 6.82-6.64s6.55 2.7 6.55 6.64v20.88c0 3.93 2.19 7.16 6.38 7.16s6.47-3.23 6.47-7.16V18.55c0-4.03 2.88-6.64 6.81-6.64s6.55 2.7 6.55 6.64v20.88c0 3.93 2.18 7.16 6.38 7.16s6.47-3.23 6.47-7.16V15.66C113.5 6.92 106.48.8 98.03.8S84.3 6.65 84.3 6.65C81.49 3.01 77.62.81 71.06.81c-6.92 0-12.97 5.84-12.97 5.84C55.27 3.01 50.49.81 46.53.81c-6.13 0-11 2.69-13.96 9.49l-8.78 20.68L12.53 4.44m278.02 2.59v-.04c0-2.92 2.37-5.38 5.35-5.38s5.36 2.43 5.36 5.35v.03c0 2.93-2.36 5.39-5.36 5.39s-5.35-2.42-5.35-5.35m9.68-.04h0c0-2.41-1.85-4.39-4.33-4.39s-4.34 2-4.34 4.39v.03c0 2.4 1.86 4.36 4.34 4.36s4.33-2 4.33-4.4"/><path d="M293.86 4.88c0-.32.25-.58.57-.58h1.79c.67 0 1.19.19 1.51.54.3.28.46.7.46 1.18v.02c0 .82-.42 1.32-1.04 1.58l.79.96c.11.14.18.26.18.43 0 .31-.26.53-.54.53-.25 0-.42-.13-.56-.29l-1.11-1.41H295v1.13c0 .32-.25.57-.57.57s-.57-.25-.57-.57V4.88zm2.3 1.94c.56 0 .87-.28.87-.73v-.02c0-.48-.33-.74-.88-.74h-1.14v1.49h1.15z"/></g><defs ><path id="B" d="m185.21,78.48v-.05c0-4.01,3.18-7.32,7.48-7.32s7.46,3.26,7.46,7.27v.05c0,3.98-3.18,7.3-7.51,7.3s-7.43-3.26-7.43-7.24Zm11.73,0v-.05c0-2.47-1.78-4.51-4.3-4.51s-4.22,2.02-4.22,4.46v.05c0,2.44,1.78,4.48,4.27,4.48s4.25-2.02,4.25-4.43Z"/></defs></svg>
